<?xml version="1.0" encoding="UTF-8" standalone="no"?>
<!DOCTYPE svg PUBLIC "-//W3C//DTD SVG 1.1//EN"
 "http://www.w3.org/Graphics/SVG/1.1/DTD/svg11.dtd">
<!-- Generated by graphviz version 2.40.1 (20161225.0304)
 -->
<!-- Title: dependencies Pages: 1 -->
<svg width="732pt" height="284pt"
 viewBox="0.00 0.00 732.00 284.00" xmlns="http://www.w3.org/2000/svg" xmlns:xlink="http://www.w3.org/1999/xlink">
<g id="graph0" class="graph" transform="scale(1 1) rotate(0) translate(4 280)">
<title>dependencies</title>
<polygon fill="#ffffff" stroke="transparent" points="-4,4 -4,-280 728,-280 728,4 -4,4"/>
<text text-anchor="start" x="341.0091" y="-42.4" font-family="sans-serif" font-weight="bold" font-size="14.00" fill="#000000">Legend</text>
<polygon fill="#ffffb3" stroke="transparent" points="128,-10 128,-30 148,-30 148,-10 128,-10"/>
<text text-anchor="start" x="151.629" y="-15.4" font-family="sans-serif" font-size="14.00" fill="#000000"> &#160;Declarations</text>
<polygon fill="#8dd3c7" stroke="transparent" points="241,-10 241,-30 261,-30 261,-10 241,-10"/>
<text text-anchor="start" x="264.7251" y="-15.4" font-family="sans-serif" font-size="14.00" fill="#000000"> &#160;Module</text>
<polygon fill="#80b1d3" stroke="transparent" points="327,-10 327,-30 347,-30 347,-10 327,-10"/>
<text text-anchor="start" x="350.7812" y="-15.4" font-family="sans-serif" font-size="14.00" fill="#000000"> &#160;Bootstrap</text>
<polygon fill="#fdb462" stroke="transparent" points="424,-10 424,-30 444,-30 444,-10 424,-10"/>
<text text-anchor="start" x="447.6732" y="-15.4" font-family="sans-serif" font-size="14.00" fill="#000000"> &#160;Providers</text>
<polygon fill="#fb8072" stroke="transparent" points="520,-10 520,-30 540,-30 540,-10 520,-10"/>
<text text-anchor="start" x="543.7258" y="-15.4" font-family="sans-serif" font-size="14.00" fill="#000000"> &#160;Exports</text>
<g id="clust1" class="cluster">
<title>cluster_UsersModule</title>
<polygon fill="none" stroke="#000000" stroke-dasharray="1,5" points="8,-70 8,-268 716,-268 716,-70 8,-70"/>
</g>
<g id="clust2" class="cluster">
<title>cluster_UsersModule_declarations</title>
<polygon fill="none" stroke="#000000" points="16,-78 16,-130 708,-130 708,-78 16,-78"/>
</g>
<g id="clust8" class="cluster">
<title>cluster_UsersModule_exports</title>
<polygon fill="none" stroke="#000000" points="272,-208 272,-260 434,-260 434,-208 272,-208"/>
</g>
<!-- ChangePasswordComponent -->
<g id="node1" class="node">
<title>ChangePasswordComponent</title>
<polygon fill="#ffffb3" stroke="#000000" points="699.752,-122 522.248,-122 522.248,-86 699.752,-86 699.752,-122"/>
<text text-anchor="middle" x="611" y="-99.8" font-family="Times,serif" font-size="14.00" fill="#000000">ChangePasswordComponent</text>
</g>
<!-- UsersModule -->
<g id="node5" class="node">
<title>UsersModule</title>
<polygon fill="#8dd3c7" stroke="#000000" points="398.9218,-187 395.9218,-191 374.9218,-191 371.9218,-187 307.0782,-187 307.0782,-151 398.9218,-151 398.9218,-187"/>
<text text-anchor="middle" x="353" y="-164.8" font-family="Times,serif" font-size="14.00" fill="#000000">UsersModule</text>
</g>
<!-- ChangePasswordComponent&#45;&gt;UsersModule -->
<g id="edge1" class="edge">
<title>ChangePasswordComponent&#45;&gt;UsersModule</title>
<path fill="none" stroke="#000000" d="M611,-122.1061C611,-141.3391 611,-169 611,-169 611,-169 408.8279,-169 408.8279,-169"/>
<polygon fill="#000000" stroke="#000000" points="408.828,-165.5001 398.8279,-169 408.8279,-172.5001 408.828,-165.5001"/>
</g>
<!-- ConnexionComponent -->
<g id="node2" class="node">
<title>ConnexionComponent</title>
<polygon fill="#ffffb3" stroke="#000000" points="504.2744,-122 361.7256,-122 361.7256,-86 504.2744,-86 504.2744,-122"/>
<text text-anchor="middle" x="433" y="-99.8" font-family="Times,serif" font-size="14.00" fill="#000000">ConnexionComponent</text>
</g>
<!-- ConnexionComponent&#45;&gt;UsersModule -->
<g id="edge2" class="edge">
<title>ConnexionComponent&#45;&gt;UsersModule</title>
<path fill="none" stroke="#000000" d="M380.1617,-122.1061C380.1617,-122.1061 380.1617,-140.991 380.1617,-140.991"/>
<polygon fill="#000000" stroke="#000000" points="376.6617,-140.9909 380.1617,-150.991 383.6617,-140.991 376.6617,-140.9909"/>
</g>
<!-- InscriptionComponent -->
<g id="node3" class="node">
<title>InscriptionComponent</title>
<polygon fill="#ffffb3" stroke="#000000" points="343.9846,-122 202.0154,-122 202.0154,-86 343.9846,-86 343.9846,-122"/>
<text text-anchor="middle" x="273" y="-99.8" font-family="Times,serif" font-size="14.00" fill="#000000">InscriptionComponent</text>
</g>
<!-- InscriptionComponent&#45;&gt;UsersModule -->
<g id="edge3" class="edge">
<title>InscriptionComponent&#45;&gt;UsersModule</title>
<path fill="none" stroke="#000000" d="M325.6409,-122.1061C325.6409,-122.1061 325.6409,-140.991 325.6409,-140.991"/>
<polygon fill="#000000" stroke="#000000" points="322.141,-140.9909 325.6409,-150.991 329.141,-140.991 322.141,-140.9909"/>
</g>
<!-- LightboxMailComponent -->
<g id="node4" class="node">
<title>LightboxMailComponent</title>
<polygon fill="#ffffb3" stroke="#000000" points="183.6066,-122 24.3934,-122 24.3934,-86 183.6066,-86 183.6066,-122"/>
<text text-anchor="middle" x="104" y="-99.8" font-family="Times,serif" font-size="14.00" fill="#000000">LightboxMailComponent</text>
</g>
<!-- LightboxMailComponent&#45;&gt;UsersModule -->
<g id="edge4" class="edge">
<title>LightboxMailComponent&#45;&gt;UsersModule</title>
<path fill="none" stroke="#000000" d="M104,-122.1061C104,-141.3391 104,-169 104,-169 104,-169 297.0394,-169 297.0394,-169"/>
<polygon fill="#000000" stroke="#000000" points="297.0394,-172.5001 307.0394,-169 297.0393,-165.5001 297.0394,-172.5001"/>
</g>
<!-- ConnexionComponent  -->
<g id="node6" class="node">
<title>ConnexionComponent </title>
<polygon fill="#fb8072" stroke="#000000" points="426.2745,-252 279.7255,-252 279.7255,-216 426.2745,-216 426.2745,-252"/>
<text text-anchor="middle" x="353" y="-229.8" font-family="Times,serif" font-size="14.00" fill="#000000">ConnexionComponent </text>
</g>
<!-- UsersModule&#45;&gt;ConnexionComponent  -->
<g id="edge5" class="edge">
<title>UsersModule&#45;&gt;ConnexionComponent </title>
<path fill="none" stroke="#000000" stroke-dasharray="5,2" d="M353,-187.1061C353,-187.1061 353,-205.991 353,-205.991"/>
<polygon fill="#000000" stroke="#000000" points="349.5001,-205.9909 353,-215.991 356.5001,-205.991 349.5001,-205.9909"/>
</g>
</g>
</svg>
