<?xml version="1.0"?>
<svg xmlns="http://www.w3.org/2000/svg" id="Layer_5" enable-background="new 0 0 64 64" height="512px" viewBox="0 0 64 64" width="512px"><g><path d="m61.6 47.2c.903-1.204 1.4-2.695 1.4-4.2v-13c0-1.654-1.346-3-3-3-.395 0-.77.081-1.116.22-.345-1.275-1.501-2.22-2.884-2.22-.771 0-1.468.301-2 .78-.532-.48-1.229-.78-2-.78-.352 0-.686.072-1 .184v-9.184c0-.462-.113-.894-.301-1.285l4.301-4.301 3.542 3.542 2.833-11.331-11.331 2.833 3.542 3.542-4.301 4.301c-.391-.188-.823-.301-1.285-.301-1.302 0-2.402.839-2.816 2h-9.598l-34.293 34.293 1.414 1.414 33.707-33.707h8.586v18.014c0 .455-.105.91-.305 1.319l-.839-4.194c-.601-3.001-3.259-5.18-6.32-5.18-1.397 0-2.534 1.137-2.535 2.535 0 .502.147.988.426 1.406l1.029 1.543c.381.571.627 1.234.713 1.915l.691 5.534c.115.921.407 1.798.837 2.546l3.303 6.792v1.77h-2v12h22v-12h-2v-1.667zm-2.975-41.825-1.167 4.669-3.502-3.502zm1.375 47.625v2h-18v-2zm-18 8v-4h18v4zm2-10v-2.23l-3.537-7.266c-.329-.576-.538-1.202-.62-1.86l-.691-5.534c-.124-.988-.481-1.948-1.033-2.776l-1.029-1.544c-.059-.088-.09-.191-.09-.297 0-.295.24-.535.535-.535 2.112 0 3.945 1.502 4.359 3.573l1.286 6.427h2.438l.854-1.708c.345-.691.528-1.464.528-2.236v-19.014c0-.551.449-1 1-1s1 .449 1 1v12 4h2v-4c0-.551.449-1 1-1s1 .449 1 1v4h2v-4c0-.551.449-1 1-1s1 .449 1 1v2 2h2v-2c0-.551.449-1 1-1s1 .449 1 1v13c0 1.075-.355 2.141-1 3l-2 2.667v2.333z" data-original="#000000" class="active-path" data-old_color="#000000" fill="#FFFFFF"/><path d="m14 27c7.168 0 13-5.832 13-13s-5.832-13-13-13-13 5.832-13 13 5.832 13 13 13zm0-24c6.065 0 11 4.935 11 11s-4.935 11-11 11-11-4.935-11-11 4.935-11 11-11z" data-original="#000000" class="active-path" data-old_color="#000000" fill="#FFFFFF"/><path d="m14 19c-1.103 0-2-.897-2-2h-2c0 1.858 1.28 3.411 3 3.858v2.142h2v-2h3v-4c0-2.206-1.794-4-4-4-1.103 0-2-.897-2-2v-2h2c1.103 0 2 .897 2 2h2c0-1.858-1.28-3.411-3-3.858v-2.142h-2v2h-3v4c0 2.206 1.794 4 4 4 1.103 0 2 .897 2 2v2z" data-original="#000000" class="active-path" data-old_color="#000000" fill="#FFFFFF"/><path d="m21 13h2v2h-2z" data-original="#000000" class="active-path" data-old_color="#000000" fill="#FFFFFF"/><path d="m5 13h2v2h-2z" data-original="#000000" class="active-path" data-old_color="#000000" fill="#FFFFFF"/><path d="m3 63h8v-12h-8zm2-10h4v8h-4z" data-original="#000000" class="active-path" data-old_color="#000000" fill="#FFFFFF"/><path d="m15 63h8v-22h-8zm2-20h4v18h-4z" data-original="#000000" class="active-path" data-old_color="#000000" fill="#FFFFFF"/><path d="m27 63h8v-30h-8zm2-28h4v26h-4z" data-original="#000000" class="active-path" data-old_color="#000000" fill="#FFFFFF"/></g> </svg>
