<?xml version="1.0"?>
<svg xmlns="http://www.w3.org/2000/svg" height="512px" viewBox="0 0 512 512" width="512px"><g><path d="m301 377c0 8.285156-6.714844 15-15 15s-15-6.714844-15-15 6.714844-15 15-15 15 6.714844 15 15zm0 0" data-original="#000000" class="active-path" data-old_color="#FBFCFC" fill="#FCFFFF"/><path d="m451 437c0 8.285156-6.714844 15-15 15s-15-6.714844-15-15 6.714844-15 15-15 15 6.714844 15 15zm0 0" data-original="#000000" class="active-path" data-old_color="#FBFCFC" fill="#FCFFFF"/><path d="m497 0h-482c-8.285156 0-15 6.714844-15 15v482c0 8.285156 6.714844 15 15 15h482c8.285156 0 15-6.714844 15-15v-482c0-8.285156-6.714844-15-15-15zm-15 120h-91v-90h91zm-121-90v90h-331v-90zm-331 452v-332h452v332zm0 0" data-original="#000000" class="active-path" data-old_color="#FBFCFC" fill="#FCFFFF"/><path d="m76 90h30c8.285156 0 15-6.714844 15-15s-6.714844-15-15-15h-30c-8.285156 0-15 6.714844-15 15s6.714844 15 15 15zm0 0" data-original="#000000" class="active-path" data-old_color="#FBFCFC" fill="#FCFFFF"/><path d="m166 90h30c8.285156 0 15-6.714844 15-15s-6.714844-15-15-15h-30c-8.285156 0-15 6.714844-15 15s6.714844 15 15 15zm0 0" data-original="#000000" class="active-path" data-old_color="#FBFCFC" fill="#FCFFFF"/><path d="m256 90h30c8.285156 0 15-6.714844 15-15s-6.714844-15-15-15h-30c-8.285156 0-15 6.714844-15 15s6.714844 15 15 15zm0 0" data-original="#000000" class="active-path" data-old_color="#FBFCFC" fill="#FCFFFF"/><path d="m286 302h15v15c0 8.285156 6.714844 15 15 15s15-6.714844 15-15v-15h15c8.285156 0 15-6.714844 15-15s-6.714844-15-15-15h-15v-75c0-8.285156-6.714844-15-15-15s-15 6.714844-15 15v75h-15c-8.285156 0-15 6.714844-15 15s6.714844 15 15 15zm0 0" data-original="#000000" class="active-path" data-old_color="#FBFCFC" fill="#FCFFFF"/><path d="m436 212h-15v-15c0-8.285156-6.714844-15-15-15s-15 6.714844-15 15v15h-15c-8.285156 0-15 6.714844-15 15s6.714844 15 15 15h15v75c0 8.285156 6.714844 15 15 15s15-6.714844 15-15v-75h15c8.285156 0 15-6.714844 15-15s-6.714844-15-15-15zm0 0" data-original="#000000" class="active-path" data-old_color="#FBFCFC" fill="#FCFFFF"/><path d="m136 248.214844 19.394531 19.390625c5.855469 5.859375 15.355469 5.859375 21.210938 0l60-60c5.859375-5.859375 5.859375-15.355469 0-21.210938-5.855469-5.859375-15.351563-5.859375-21.210938 0l-49.394531 49.390625-19.394531-19.390625c-5.855469-5.859375-15.355469-5.859375-21.210938 0l-34.394531 34.390625v-53.785156c0-8.285156-6.714844-15-15-15s-15 6.714844-15 15v120c0 8.285156 6.714844 15 15 15h150c8.285156 0 15-6.714844 15-15s-6.714844-15-15-15h-135v-8.785156zm0 0" data-original="#000000" class="active-path" data-old_color="#FBFCFC" fill="#FCFFFF"/><path d="m226 362h-150c-8.285156 0-15 6.714844-15 15v60c0 8.285156 6.714844 15 15 15h150c8.285156 0 15-6.714844 15-15v-60c0-8.285156-6.714844-15-15-15zm-15 60h-120v-30h120zm0 0" data-original="#000000" class="active-path" data-old_color="#FBFCFC" fill="#FCFFFF"/><path d="m436 362h-90c-8.285156 0-15 6.714844-15 15s6.714844 15 15 15h90c8.285156 0 15-6.714844 15-15s-6.714844-15-15-15zm0 0" data-original="#000000" class="active-path" data-old_color="#FBFCFC" fill="#FCFFFF"/><path d="m376 422h-90c-8.285156 0-15 6.714844-15 15s6.714844 15 15 15h90c8.285156 0 15-6.714844 15-15s-6.714844-15-15-15zm0 0" data-original="#000000" class="active-path" data-old_color="#FBFCFC" fill="#FCFFFF"/></g> </svg>
