<?xml version="1.0" encoding="UTF-8" standalone="no"?>
<!DOCTYPE svg PUBLIC "-//W3C//DTD SVG 1.1//EN"
 "http://www.w3.org/Graphics/SVG/1.1/DTD/svg11.dtd">
<!-- Generated by graphviz version 2.40.1 (20161225.0304)
 -->
<!-- Title: dependencies Pages: 1 -->
<svg width="512pt" height="284pt"
 viewBox="0.00 0.00 512.00 284.00" xmlns="http://www.w3.org/2000/svg" xmlns:xlink="http://www.w3.org/1999/xlink">
<g id="graph0" class="graph" transform="scale(1 1) rotate(0) translate(4 280)">
<title>dependencies</title>
<polygon fill="#ffffff" stroke="transparent" points="-4,4 -4,-280 508,-280 508,4 -4,4"/>
<text text-anchor="start" x="231.0091" y="-42.4" font-family="sans-serif" font-weight="bold" font-size="14.00" fill="#000000">Legend</text>
<polygon fill="#ffffb3" stroke="transparent" points="18,-10 18,-30 38,-30 38,-10 18,-10"/>
<text text-anchor="start" x="41.629" y="-15.4" font-family="sans-serif" font-size="14.00" fill="#000000"> &#160;Declarations</text>
<polygon fill="#8dd3c7" stroke="transparent" points="131,-10 131,-30 151,-30 151,-10 131,-10"/>
<text text-anchor="start" x="154.7251" y="-15.4" font-family="sans-serif" font-size="14.00" fill="#000000"> &#160;Module</text>
<polygon fill="#80b1d3" stroke="transparent" points="217,-10 217,-30 237,-30 237,-10 217,-10"/>
<text text-anchor="start" x="240.7812" y="-15.4" font-family="sans-serif" font-size="14.00" fill="#000000"> &#160;Bootstrap</text>
<polygon fill="#fdb462" stroke="transparent" points="314,-10 314,-30 334,-30 334,-10 314,-10"/>
<text text-anchor="start" x="337.6732" y="-15.4" font-family="sans-serif" font-size="14.00" fill="#000000"> &#160;Providers</text>
<polygon fill="#fb8072" stroke="transparent" points="410,-10 410,-30 430,-30 430,-10 410,-10"/>
<text text-anchor="start" x="433.7258" y="-15.4" font-family="sans-serif" font-size="14.00" fill="#000000"> &#160;Exports</text>
<g id="clust1" class="cluster">
<title>cluster_ProduitsModule</title>
<polygon fill="none" stroke="#000000" stroke-dasharray="1,5" points="8,-70 8,-268 496,-268 496,-70 8,-70"/>
</g>
<g id="clust2" class="cluster">
<title>cluster_ProduitsModule_declarations</title>
<polygon fill="none" stroke="#000000" points="138,-78 138,-130 488,-130 488,-78 138,-78"/>
</g>
<g id="clust5" class="cluster">
<title>cluster_ProduitsModule_imports</title>
<polygon fill="none" stroke="#000000" points="16,-78 16,-130 130,-130 130,-78 16,-78"/>
</g>
<g id="clust6" class="cluster">
<title>cluster_ProduitsModule_exports</title>
<polygon fill="none" stroke="#000000" points="166,-208 166,-260 314,-260 314,-208 166,-208"/>
</g>
<!-- ProduitsComponent -->
<g id="node1" class="node">
<title>ProduitsComponent</title>
<polygon fill="#ffffb3" stroke="#000000" points="480.0014,-122 351.9986,-122 351.9986,-86 480.0014,-86 480.0014,-122"/>
<text text-anchor="middle" x="416" y="-99.8" font-family="Times,serif" font-size="14.00" fill="#000000">ProduitsComponent</text>
</g>
<!-- ProduitsModule -->
<g id="node3" class="node">
<title>ProduitsModule</title>
<polygon fill="#8dd3c7" stroke="#000000" points="293.219,-187 290.219,-191 269.219,-191 266.219,-187 186.781,-187 186.781,-151 293.219,-151 293.219,-187"/>
<text text-anchor="middle" x="240" y="-164.8" font-family="Times,serif" font-size="14.00" fill="#000000">ProduitsModule</text>
</g>
<!-- ProduitsComponent&#45;&gt;ProduitsModule -->
<g id="edge1" class="edge">
<title>ProduitsComponent&#45;&gt;ProduitsModule</title>
<path fill="none" stroke="#000000" d="M416,-122.1061C416,-141.3391 416,-169 416,-169 416,-169 303.2834,-169 303.2834,-169"/>
<polygon fill="#000000" stroke="#000000" points="303.2835,-165.5001 293.2834,-169 303.2834,-172.5001 303.2835,-165.5001"/>
</g>
<!-- ProduitsHorsVenteComponent -->
<g id="node2" class="node">
<title>ProduitsHorsVenteComponent</title>
<polygon fill="#ffffb3" stroke="#000000" points="334.1399,-122 145.8601,-122 145.8601,-86 334.1399,-86 334.1399,-122"/>
<text text-anchor="middle" x="240" y="-99.8" font-family="Times,serif" font-size="14.00" fill="#000000">ProduitsHorsVenteComponent</text>
</g>
<!-- ProduitsHorsVenteComponent&#45;&gt;ProduitsModule -->
<g id="edge2" class="edge">
<title>ProduitsHorsVenteComponent&#45;&gt;ProduitsModule</title>
<path fill="none" stroke="#000000" d="M240,-122.1061C240,-122.1061 240,-140.991 240,-140.991"/>
<polygon fill="#000000" stroke="#000000" points="236.5001,-140.9909 240,-150.991 243.5001,-140.991 236.5001,-140.9909"/>
</g>
<!-- ProduitsComponent  -->
<g id="node5" class="node">
<title>ProduitsComponent </title>
<polygon fill="#fb8072" stroke="#000000" points="305.5023,-252 174.4977,-252 174.4977,-216 305.5023,-216 305.5023,-252"/>
<text text-anchor="middle" x="240" y="-229.8" font-family="Times,serif" font-size="14.00" fill="#000000">ProduitsComponent </text>
</g>
<!-- ProduitsModule&#45;&gt;ProduitsComponent  -->
<g id="edge4" class="edge">
<title>ProduitsModule&#45;&gt;ProduitsComponent </title>
<path fill="none" stroke="#000000" stroke-dasharray="5,2" d="M240,-187.1061C240,-187.1061 240,-205.991 240,-205.991"/>
<polygon fill="#000000" stroke="#000000" points="236.5001,-205.9909 240,-215.991 243.5001,-205.991 236.5001,-205.9909"/>
</g>
<!-- SharedModule -->
<g id="node4" class="node">
<title>SharedModule</title>
<polygon fill="#8dd3c7" stroke="#000000" points="122.4231,-122 119.4231,-126 98.4231,-126 95.4231,-122 23.5769,-122 23.5769,-86 122.4231,-86 122.4231,-122"/>
<text text-anchor="middle" x="73" y="-99.8" font-family="Times,serif" font-size="14.00" fill="#000000">SharedModule</text>
</g>
<!-- SharedModule&#45;&gt;ProduitsModule -->
<g id="edge3" class="edge">
<title>SharedModule&#45;&gt;ProduitsModule</title>
<path fill="none" stroke="#000000" d="M73,-122.1061C73,-141.3391 73,-169 73,-169 73,-169 176.701,-169 176.701,-169"/>
<polygon fill="#000000" stroke="#000000" points="176.701,-172.5001 186.701,-169 176.701,-165.5001 176.701,-172.5001"/>
</g>
</g>
</svg>
