<?xml version="1.0" encoding="UTF-8" standalone="no"?>
<!DOCTYPE svg PUBLIC "-//W3C//DTD SVG 1.1//EN"
 "http://www.w3.org/Graphics/SVG/1.1/DTD/svg11.dtd">
<!-- Generated by graphviz version 2.40.1 (20161225.0304)
 -->
<!-- Title: dependencies Pages: 1 -->
<svg width="615pt" height="211pt"
 viewBox="0.00 0.00 615.00 211.00" xmlns="http://www.w3.org/2000/svg" xmlns:xlink="http://www.w3.org/1999/xlink">
<g id="graph0" class="graph" transform="scale(1 1) rotate(0) translate(4 207)">
<title>dependencies</title>
<polygon fill="#ffffff" stroke="transparent" points="-4,4 -4,-207 611,-207 611,4 -4,4"/>
<text text-anchor="start" x="282.5091" y="-42.4" font-family="sans-serif" font-weight="bold" font-size="14.00" fill="#000000">Legend</text>
<polygon fill="#ffffb3" stroke="transparent" points="69.5,-10 69.5,-30 89.5,-30 89.5,-10 69.5,-10"/>
<text text-anchor="start" x="93.129" y="-15.4" font-family="sans-serif" font-size="14.00" fill="#000000"> &#160;Declarations</text>
<polygon fill="#8dd3c7" stroke="transparent" points="182.5,-10 182.5,-30 202.5,-30 202.5,-10 182.5,-10"/>
<text text-anchor="start" x="206.2251" y="-15.4" font-family="sans-serif" font-size="14.00" fill="#000000"> &#160;Module</text>
<polygon fill="#80b1d3" stroke="transparent" points="268.5,-10 268.5,-30 288.5,-30 288.5,-10 268.5,-10"/>
<text text-anchor="start" x="292.2812" y="-15.4" font-family="sans-serif" font-size="14.00" fill="#000000"> &#160;Bootstrap</text>
<polygon fill="#fdb462" stroke="transparent" points="365.5,-10 365.5,-30 385.5,-30 385.5,-10 365.5,-10"/>
<text text-anchor="start" x="389.1732" y="-15.4" font-family="sans-serif" font-size="14.00" fill="#000000"> &#160;Providers</text>
<polygon fill="#fb8072" stroke="transparent" points="461.5,-10 461.5,-30 481.5,-30 481.5,-10 461.5,-10"/>
<text text-anchor="start" x="485.2258" y="-15.4" font-family="sans-serif" font-size="14.00" fill="#000000"> &#160;Exports</text>
<g id="clust1" class="cluster">
<title>cluster_AnnuaireModule</title>
<polygon fill="none" stroke="#000000" stroke-dasharray="1,5" points="8,-70 8,-195 599,-195 599,-70 8,-70"/>
</g>
<g id="clust2" class="cluster">
<title>cluster_AnnuaireModule_declarations</title>
<polygon fill="none" stroke="#000000" points="16,-78 16,-130 591,-130 591,-78 16,-78"/>
</g>
<!-- ContactFournisseurHorsConnexionComponent -->
<g id="node1" class="node">
<title>ContactFournisseurHorsConnexionComponent</title>
<polygon fill="#ffffb3" stroke="#000000" points="583.4776,-122 392.5224,-122 392.5224,-86 583.4776,-86 583.4776,-122"/>
<text text-anchor="middle" x="488" y="-99.8" font-family="Times,serif" font-size="14.00" fill="#000000">ContactFournisseurHorsConnexionComponent</text>
</g>
<!-- AnnuaireModule -->
<g id="node4" class="node">
<title>AnnuaireModule</title>
<polygon fill="#8dd3c7" stroke="#000000" points="346.6374,-187 343.6374,-191 322.6374,-191 319.6374,-187 235.3626,-187 235.3626,-151 346.6374,-151 346.6374,-187"/>
<text text-anchor="middle" x="291" y="-164.8" font-family="Times,serif" font-size="14.00" fill="#000000">AnnuaireModule</text>
</g>
<!-- ContactFournisseurHorsConnexionComponent&#45;&gt;AnnuaireModule -->
<g id="edge1" class="edge">
<title>ContactFournisseurHorsConnexionComponent&#45;&gt;AnnuaireModule</title>
<path fill="none" stroke="#000000" d="M488,-122.1061C488,-141.3391 488,-169 488,-169 488,-169 356.6624,-169 356.6624,-169"/>
<polygon fill="#000000" stroke="#000000" points="356.6624,-165.5001 346.6624,-169 356.6623,-172.5001 356.6624,-165.5001"/>
</g>
<!-- DetailAnnonceHorsConnexionComponent -->
<g id="node2" class="node">
<title>DetailAnnonceHorsConnexionComponent</title>
<polygon fill="#ffffb3" stroke="#000000" points="374.0758,-122 207.9242,-122 207.9242,-86 374.0758,-86 374.0758,-122"/>
<text text-anchor="middle" x="291" y="-99.8" font-family="Times,serif" font-size="14.00" fill="#000000">DetailAnnonceHorsConnexionComponent</text>
</g>
<!-- DetailAnnonceHorsConnexionComponent&#45;&gt;AnnuaireModule -->
<g id="edge2" class="edge">
<title>DetailAnnonceHorsConnexionComponent&#45;&gt;AnnuaireModule</title>
<path fill="none" stroke="#000000" d="M291,-122.1061C291,-122.1061 291,-140.991 291,-140.991"/>
<polygon fill="#000000" stroke="#000000" points="287.5001,-140.9909 291,-150.991 294.5001,-140.991 287.5001,-140.9909"/>
</g>
<!-- ListeAnnoncesHorsConnexionComponent -->
<g id="node3" class="node">
<title>ListeAnnoncesHorsConnexionComponent</title>
<polygon fill="#ffffb3" stroke="#000000" points="189.8061,-122 24.1939,-122 24.1939,-86 189.8061,-86 189.8061,-122"/>
<text text-anchor="middle" x="107" y="-99.8" font-family="Times,serif" font-size="14.00" fill="#000000">ListeAnnoncesHorsConnexionComponent</text>
</g>
<!-- ListeAnnoncesHorsConnexionComponent&#45;&gt;AnnuaireModule -->
<g id="edge3" class="edge">
<title>ListeAnnoncesHorsConnexionComponent&#45;&gt;AnnuaireModule</title>
<path fill="none" stroke="#000000" d="M107,-122.1061C107,-141.3391 107,-169 107,-169 107,-169 225.2946,-169 225.2946,-169"/>
<polygon fill="#000000" stroke="#000000" points="225.2946,-172.5001 235.2946,-169 225.2946,-165.5001 225.2946,-172.5001"/>
</g>
</g>
</svg>
