<?xml version="1.0" encoding="UTF-8" standalone="no"?>
<!DOCTYPE svg PUBLIC "-//W3C//DTD SVG 1.1//EN"
 "http://www.w3.org/Graphics/SVG/1.1/DTD/svg11.dtd">
<!-- Generated by graphviz version 2.40.1 (20161225.0304)
 -->
<!-- Title: dependencies Pages: 1 -->
<svg width="559pt" height="211pt"
 viewBox="0.00 0.00 559.00 211.00" xmlns="http://www.w3.org/2000/svg" xmlns:xlink="http://www.w3.org/1999/xlink">
<g id="graph0" class="graph" transform="scale(1 1) rotate(0) translate(4 207)">
<title>dependencies</title>
<polygon fill="#ffffff" stroke="transparent" points="-4,4 -4,-207 555,-207 555,4 -4,4"/>
<text text-anchor="start" x="254.5091" y="-42.4" font-family="sans-serif" font-weight="bold" font-size="14.00" fill="#000000">Legend</text>
<polygon fill="#ffffb3" stroke="transparent" points="41.5,-10 41.5,-30 61.5,-30 61.5,-10 41.5,-10"/>
<text text-anchor="start" x="65.129" y="-15.4" font-family="sans-serif" font-size="14.00" fill="#000000"> &#160;Declarations</text>
<polygon fill="#8dd3c7" stroke="transparent" points="154.5,-10 154.5,-30 174.5,-30 174.5,-10 154.5,-10"/>
<text text-anchor="start" x="178.2251" y="-15.4" font-family="sans-serif" font-size="14.00" fill="#000000"> &#160;Module</text>
<polygon fill="#80b1d3" stroke="transparent" points="240.5,-10 240.5,-30 260.5,-30 260.5,-10 240.5,-10"/>
<text text-anchor="start" x="264.2812" y="-15.4" font-family="sans-serif" font-size="14.00" fill="#000000"> &#160;Bootstrap</text>
<polygon fill="#fdb462" stroke="transparent" points="337.5,-10 337.5,-30 357.5,-30 357.5,-10 337.5,-10"/>
<text text-anchor="start" x="361.1732" y="-15.4" font-family="sans-serif" font-size="14.00" fill="#000000"> &#160;Providers</text>
<polygon fill="#fb8072" stroke="transparent" points="433.5,-10 433.5,-30 453.5,-30 453.5,-10 433.5,-10"/>
<text text-anchor="start" x="457.2258" y="-15.4" font-family="sans-serif" font-size="14.00" fill="#000000"> &#160;Exports</text>
<g id="clust1" class="cluster">
<title>cluster_AnnoncesModule</title>
<polygon fill="none" stroke="#000000" stroke-dasharray="1,5" points="8,-70 8,-195 543,-195 543,-70 8,-70"/>
</g>
<g id="clust2" class="cluster">
<title>cluster_AnnoncesModule_declarations</title>
<polygon fill="none" stroke="#000000" points="16,-78 16,-130 535,-130 535,-78 16,-78"/>
</g>
<!-- AnnoncesComponent -->
<g id="node1" class="node">
<title>AnnoncesComponent</title>
<polygon fill="#ffffb3" stroke="#000000" points="526.8132,-122 389.1868,-122 389.1868,-86 526.8132,-86 526.8132,-122"/>
<text text-anchor="middle" x="458" y="-99.8" font-family="Times,serif" font-size="14.00" fill="#000000">AnnoncesComponent</text>
</g>
<!-- AnnoncesModule -->
<g id="node4" class="node">
<title>AnnoncesModule</title>
<polygon fill="#8dd3c7" stroke="#000000" points="347.5312,-187 344.5312,-191 323.5312,-191 320.5312,-187 232.4688,-187 232.4688,-151 347.5312,-151 347.5312,-187"/>
<text text-anchor="middle" x="290" y="-164.8" font-family="Times,serif" font-size="14.00" fill="#000000">AnnoncesModule</text>
</g>
<!-- AnnoncesComponent&#45;&gt;AnnoncesModule -->
<g id="edge1" class="edge">
<title>AnnoncesComponent&#45;&gt;AnnoncesModule</title>
<path fill="none" stroke="#000000" d="M458,-122.1061C458,-141.3391 458,-169 458,-169 458,-169 357.8161,-169 357.8161,-169"/>
<polygon fill="#000000" stroke="#000000" points="357.8161,-165.5001 347.8161,-169 357.816,-172.5001 357.8161,-165.5001"/>
</g>
<!-- CreerAnnonceComponent -->
<g id="node2" class="node">
<title>CreerAnnonceComponent</title>
<polygon fill="#ffffb3" stroke="#000000" points="371.4552,-122 208.5448,-122 208.5448,-86 371.4552,-86 371.4552,-122"/>
<text text-anchor="middle" x="290" y="-99.8" font-family="Times,serif" font-size="14.00" fill="#000000">CreerAnnonceComponent</text>
</g>
<!-- CreerAnnonceComponent&#45;&gt;AnnoncesModule -->
<g id="edge2" class="edge">
<title>CreerAnnonceComponent&#45;&gt;AnnoncesModule</title>
<path fill="none" stroke="#000000" d="M290,-122.1061C290,-122.1061 290,-140.991 290,-140.991"/>
<polygon fill="#000000" stroke="#000000" points="286.5001,-140.9909 290,-150.991 293.5001,-140.991 286.5001,-140.9909"/>
</g>
<!-- ModifAnnonceComponent -->
<g id="node3" class="node">
<title>ModifAnnonceComponent</title>
<polygon fill="#ffffb3" stroke="#000000" points="190.3641,-122 23.6359,-122 23.6359,-86 190.3641,-86 190.3641,-122"/>
<text text-anchor="middle" x="107" y="-99.8" font-family="Times,serif" font-size="14.00" fill="#000000">ModifAnnonceComponent</text>
</g>
<!-- ModifAnnonceComponent&#45;&gt;AnnoncesModule -->
<g id="edge3" class="edge">
<title>ModifAnnonceComponent&#45;&gt;AnnoncesModule</title>
<path fill="none" stroke="#000000" d="M107,-122.1061C107,-141.3391 107,-169 107,-169 107,-169 222.3488,-169 222.3488,-169"/>
<polygon fill="#000000" stroke="#000000" points="222.3489,-172.5001 232.3488,-169 222.3488,-165.5001 222.3489,-172.5001"/>
</g>
</g>
</svg>
