<?xml version="1.0" encoding="UTF-8" standalone="no"?>
<!DOCTYPE svg PUBLIC "-//W3C//DTD SVG 1.1//EN"
 "http://www.w3.org/Graphics/SVG/1.1/DTD/svg11.dtd">
<!-- Generated by graphviz version 2.40.1 (20161225.0304)
 -->
<!-- Title: dependencies Pages: 1 -->
<svg width="648pt" height="284pt"
 viewBox="0.00 0.00 648.00 284.00" xmlns="http://www.w3.org/2000/svg" xmlns:xlink="http://www.w3.org/1999/xlink">
<g id="graph0" class="graph" transform="scale(1 1) rotate(0) translate(4 280)">
<title>dependencies</title>
<polygon fill="#ffffff" stroke="transparent" points="-4,4 -4,-280 644,-280 644,4 -4,4"/>
<text text-anchor="start" x="299.0091" y="-42.4" font-family="sans-serif" font-weight="bold" font-size="14.00" fill="#000000">Legend</text>
<polygon fill="#ffffb3" stroke="transparent" points="86,-10 86,-30 106,-30 106,-10 86,-10"/>
<text text-anchor="start" x="109.629" y="-15.4" font-family="sans-serif" font-size="14.00" fill="#000000"> &#160;Declarations</text>
<polygon fill="#8dd3c7" stroke="transparent" points="199,-10 199,-30 219,-30 219,-10 199,-10"/>
<text text-anchor="start" x="222.7251" y="-15.4" font-family="sans-serif" font-size="14.00" fill="#000000"> &#160;Module</text>
<polygon fill="#80b1d3" stroke="transparent" points="285,-10 285,-30 305,-30 305,-10 285,-10"/>
<text text-anchor="start" x="308.7812" y="-15.4" font-family="sans-serif" font-size="14.00" fill="#000000"> &#160;Bootstrap</text>
<polygon fill="#fdb462" stroke="transparent" points="382,-10 382,-30 402,-30 402,-10 382,-10"/>
<text text-anchor="start" x="405.6732" y="-15.4" font-family="sans-serif" font-size="14.00" fill="#000000"> &#160;Providers</text>
<polygon fill="#fb8072" stroke="transparent" points="478,-10 478,-30 498,-30 498,-10 478,-10"/>
<text text-anchor="start" x="501.7258" y="-15.4" font-family="sans-serif" font-size="14.00" fill="#000000"> &#160;Exports</text>
<g id="clust1" class="cluster">
<title>cluster_ClientsModule</title>
<polygon fill="none" stroke="#000000" stroke-dasharray="1,5" points="8,-70 8,-268 632,-268 632,-70 8,-70"/>
</g>
<g id="clust2" class="cluster">
<title>cluster_ClientsModule_declarations</title>
<polygon fill="none" stroke="#000000" points="138,-78 138,-130 624,-130 624,-78 138,-78"/>
</g>
<g id="clust6" class="cluster">
<title>cluster_ClientsModule_imports</title>
<polygon fill="none" stroke="#000000" points="16,-78 16,-130 130,-130 130,-78 16,-78"/>
</g>
<g id="clust7" class="cluster">
<title>cluster_ClientsModule_exports</title>
<polygon fill="none" stroke="#000000" points="72,-208 72,-260 568,-260 568,-208 72,-208"/>
</g>
<!-- ClientDetailComponent -->
<g id="node1" class="node">
<title>ClientDetailComponent</title>
<polygon fill="#ffffb3" stroke="#000000" points="615.7632,-122 466.2368,-122 466.2368,-86 615.7632,-86 615.7632,-122"/>
<text text-anchor="middle" x="541" y="-99.8" font-family="Times,serif" font-size="14.00" fill="#000000">ClientDetailComponent</text>
</g>
<!-- ClientsModule -->
<g id="node4" class="node">
<title>ClientsModule</title>
<polygon fill="#8dd3c7" stroke="#000000" points="354.7176,-187 351.7176,-191 330.7176,-191 327.7176,-187 255.2824,-187 255.2824,-151 354.7176,-151 354.7176,-187"/>
<text text-anchor="middle" x="305" y="-164.8" font-family="Times,serif" font-size="14.00" fill="#000000">ClientsModule</text>
</g>
<!-- ClientDetailComponent&#45;&gt;ClientsModule -->
<g id="edge1" class="edge">
<title>ClientDetailComponent&#45;&gt;ClientsModule</title>
<path fill="none" stroke="#000000" d="M512.875,-122.0225C512.875,-139.3734 512.875,-163 512.875,-163 512.875,-163 364.7912,-163 364.7912,-163"/>
<polygon fill="#000000" stroke="#000000" points="364.7913,-159.5001 354.7912,-163 364.7912,-166.5001 364.7913,-159.5001"/>
</g>
<!-- ClientFacturesComponent -->
<g id="node2" class="node">
<title>ClientFacturesComponent</title>
<polygon fill="#ffffb3" stroke="#000000" points="448.4776,-122 285.5224,-122 285.5224,-86 448.4776,-86 448.4776,-122"/>
<text text-anchor="middle" x="367" y="-99.8" font-family="Times,serif" font-size="14.00" fill="#000000">ClientFacturesComponent</text>
</g>
<!-- ClientFacturesComponent&#45;&gt;ClientsModule -->
<g id="edge2" class="edge">
<title>ClientFacturesComponent&#45;&gt;ClientsModule</title>
<path fill="none" stroke="#000000" d="M320.06,-122.1061C320.06,-122.1061 320.06,-140.991 320.06,-140.991"/>
<polygon fill="#000000" stroke="#000000" points="316.56,-140.9909 320.06,-150.991 323.56,-140.991 316.56,-140.9909"/>
</g>
<!-- ClientsComponent -->
<g id="node3" class="node">
<title>ClientsComponent</title>
<polygon fill="#ffffb3" stroke="#000000" points="267.5,-122 146.5,-122 146.5,-86 267.5,-86 267.5,-122"/>
<text text-anchor="middle" x="207" y="-99.8" font-family="Times,serif" font-size="14.00" fill="#000000">ClientsComponent</text>
</g>
<!-- ClientsComponent&#45;&gt;ClientsModule -->
<g id="edge3" class="edge">
<title>ClientsComponent&#45;&gt;ClientsModule</title>
<path fill="none" stroke="#000000" d="M261.4457,-122.1061C261.4457,-122.1061 261.4457,-140.991 261.4457,-140.991"/>
<polygon fill="#000000" stroke="#000000" points="257.9457,-140.9909 261.4457,-150.991 264.9457,-140.991 257.9457,-140.9909"/>
</g>
<!-- ClientDetailComponent  -->
<g id="node6" class="node">
<title>ClientDetailComponent </title>
<polygon fill="#fb8072" stroke="#000000" points="559.7632,-252 406.2368,-252 406.2368,-216 559.7632,-216 559.7632,-252"/>
<text text-anchor="middle" x="483" y="-229.8" font-family="Times,serif" font-size="14.00" fill="#000000">ClientDetailComponent </text>
</g>
<!-- ClientsModule&#45;&gt;ClientDetailComponent  -->
<g id="edge5" class="edge">
<title>ClientsModule&#45;&gt;ClientDetailComponent </title>
<path fill="none" stroke="#000000" stroke-dasharray="5,2" d="M354.7964,-175C388.6915,-175 427.4287,-175 427.4287,-175 427.4287,-175 427.4287,-205.9775 427.4287,-205.9775"/>
<polygon fill="#000000" stroke="#000000" points="423.9287,-205.9774 427.4287,-215.9775 430.9287,-205.9775 423.9287,-205.9774"/>
</g>
<!-- ClientFacturesComponent  -->
<g id="node7" class="node">
<title>ClientFacturesComponent </title>
<polygon fill="#fb8072" stroke="#000000" points="388.4783,-252 221.5217,-252 221.5217,-216 388.4783,-216 388.4783,-252"/>
<text text-anchor="middle" x="305" y="-229.8" font-family="Times,serif" font-size="14.00" fill="#000000">ClientFacturesComponent </text>
</g>
<!-- ClientsModule&#45;&gt;ClientFacturesComponent  -->
<g id="edge6" class="edge">
<title>ClientsModule&#45;&gt;ClientFacturesComponent </title>
<path fill="none" stroke="#000000" stroke-dasharray="5,2" d="M305,-187.1061C305,-187.1061 305,-205.991 305,-205.991"/>
<polygon fill="#000000" stroke="#000000" points="301.5001,-205.9909 305,-215.991 308.5001,-205.991 301.5001,-205.9909"/>
</g>
<!-- ClientsComponent  -->
<g id="node8" class="node">
<title>ClientsComponent </title>
<polygon fill="#fb8072" stroke="#000000" points="204.501,-252 79.499,-252 79.499,-216 204.501,-216 204.501,-252"/>
<text text-anchor="middle" x="142" y="-229.8" font-family="Times,serif" font-size="14.00" fill="#000000">ClientsComponent </text>
</g>
<!-- ClientsModule&#45;&gt;ClientsComponent  -->
<g id="edge7" class="edge">
<title>ClientsModule&#45;&gt;ClientsComponent </title>
<path fill="none" stroke="#000000" stroke-dasharray="5,2" d="M255.2543,-175C218.6994,-175 175.375,-175 175.375,-175 175.375,-175 175.375,-205.9775 175.375,-205.9775"/>
<polygon fill="#000000" stroke="#000000" points="171.8751,-205.9774 175.375,-215.9775 178.8751,-205.9775 171.8751,-205.9774"/>
</g>
<!-- SharedModule -->
<g id="node5" class="node">
<title>SharedModule</title>
<polygon fill="#8dd3c7" stroke="#000000" points="122.4231,-122 119.4231,-126 98.4231,-126 95.4231,-122 23.5769,-122 23.5769,-86 122.4231,-86 122.4231,-122"/>
<text text-anchor="middle" x="73" y="-99.8" font-family="Times,serif" font-size="14.00" fill="#000000">SharedModule</text>
</g>
<!-- SharedModule&#45;&gt;ClientsModule -->
<g id="edge4" class="edge">
<title>SharedModule&#45;&gt;ClientsModule</title>
<path fill="none" stroke="#000000" d="M100.9806,-122.0225C100.9806,-139.3734 100.9806,-163 100.9805,-163 100.9805,-163 245.3521,-163 245.3521,-163"/>
<polygon fill="#000000" stroke="#000000" points="245.3521,-166.5001 255.3521,-163 245.3521,-159.5001 245.3521,-166.5001"/>
</g>
</g>
</svg>
