<?xml version="1.0" encoding="UTF-8" standalone="no"?>
<!DOCTYPE svg PUBLIC "-//W3C//DTD SVG 1.1//EN"
 "http://www.w3.org/Graphics/SVG/1.1/DTD/svg11.dtd">
<!-- Generated by graphviz version 2.40.1 (20161225.0304)
 -->
<!-- Title: dependencies Pages: 1 -->
<svg width="6588pt" height="290pt"
     viewBox="0.00 0.00 6588.00 290.00" xmlns="http://www.w3.org/2000/svg">
<g id="graph0" class="graph" transform="scale(1 1) rotate(0) translate(4 286)">
<title>dependencies</title>
<polygon fill="#ffffff" stroke="transparent" points="-4,4 -4,-286 6584,-286 6584,4 -4,4"/>
<text text-anchor="start" x="3269.0091" y="-42.4" font-family="sans-serif" font-weight="bold" font-size="14.00" fill="#000000">Legend</text>
<polygon fill="#ffffb3" stroke="transparent" points="3056,-10 3056,-30 3076,-30 3076,-10 3056,-10"/>
<text text-anchor="start" x="3079.629" y="-15.4" font-family="sans-serif" font-size="14.00" fill="#000000"> &#160;Declarations</text>
<polygon fill="#8dd3c7" stroke="transparent" points="3169,-10 3169,-30 3189,-30 3189,-10 3169,-10"/>
<text text-anchor="start" x="3192.7251" y="-15.4" font-family="sans-serif" font-size="14.00" fill="#000000"> &#160;Module</text>
<polygon fill="#80b1d3" stroke="transparent" points="3255,-10 3255,-30 3275,-30 3275,-10 3255,-10"/>
<text text-anchor="start" x="3278.7812" y="-15.4" font-family="sans-serif" font-size="14.00" fill="#000000"> &#160;Bootstrap</text>
<polygon fill="#fdb462" stroke="transparent" points="3352,-10 3352,-30 3372,-30 3372,-10 3352,-10"/>
<text text-anchor="start" x="3375.6732" y="-15.4" font-family="sans-serif" font-size="14.00" fill="#000000"> &#160;Providers</text>
<polygon fill="#fb8072" stroke="transparent" points="3448,-10 3448,-30 3468,-30 3468,-10 3448,-10"/>
<text text-anchor="start" x="3471.7258" y="-15.4" font-family="sans-serif" font-size="14.00" fill="#000000"> &#160;Exports</text>
<g id="clust1" class="cluster">
<title>cluster_AnnoncesModule</title>
<polygon fill="none" stroke="#000000" stroke-dasharray="1,5" points="8,-70 8,-198 543,-198 543,-70 8,-70"/>
</g>
<g id="clust2" class="cluster">
<title>cluster_AnnoncesModule_declarations</title>
<polygon fill="none" stroke="#000000" points="16,-78 16,-130 535,-130 535,-78 16,-78"/>
</g>
<g id="clust10" class="cluster">
<title>cluster_AnnuaireModule</title>
<polygon fill="none" stroke="#000000" stroke-dasharray="1,5" points="551,-70 551,-198 1142,-198 1142,-70 551,-70"/>
</g>
<g id="clust11" class="cluster">
<title>cluster_AnnuaireModule_declarations</title>
<polygon fill="none" stroke="#000000" points="559,-78 559,-130 1134,-130 1134,-78 559,-78"/>
</g>
<g id="clust19" class="cluster">
<title>cluster_AppModule</title>
<polygon fill="none" stroke="#000000" stroke-dasharray="1,5" points="1150,-70 1150,-274 2584,-274 2584,-70 1150,-70"/>
</g>
<g id="clust20" class="cluster">
<title>cluster_AppModule_declarations</title>
<polygon fill="none" stroke="#000000" points="1158,-78 1158,-130 2424,-130 2424,-78 1158,-78"/>
</g>
<g id="clust29" class="cluster">
<title>cluster_AppModule_imports</title>
<polygon fill="none" stroke="#000000" points="2432,-78 2432,-130 2576,-130 2576,-78 2432,-78"/>
</g>
<g id="clust31" class="cluster">
<title>cluster_AppModule_bootstrap</title>
<polygon fill="none" stroke="#000000" points="1780,-214 1780,-266 1904,-266 1904,-214 1780,-214"/>
</g>
<g id="clust39" class="cluster">
<title>cluster_ClientsModule</title>
<polygon fill="none" stroke="#000000" stroke-dasharray="1,5" points="2946,-70 2946,-274 3570,-274 3570,-70 2946,-70"/>
</g>
<g id="clust40" class="cluster">
<title>cluster_ClientsModule_declarations</title>
<polygon fill="none" stroke="#000000" points="2954,-78 2954,-130 3440,-130 3440,-78 2954,-78"/>
</g>
<g id="clust44" class="cluster">
<title>cluster_ClientsModule_imports</title>
<polygon fill="none" stroke="#000000" points="3448,-78 3448,-130 3562,-130 3562,-78 3448,-78"/>
</g>
<g id="clust45" class="cluster">
<title>cluster_ClientsModule_exports</title>
<polygon fill="none" stroke="#000000" points="3010,-214 3010,-266 3506,-266 3506,-214 3010,-214"/>
</g>
<g id="clust48" class="cluster">
<title>cluster_CoreModule</title>
<polygon fill="none" stroke="#000000" stroke-dasharray="1,5" points="2592,-146 2592,-274 2938,-274 2938,-146 2592,-146"/>
</g>
<g id="clust52" class="cluster">
<title>cluster_CoreModule_exports</title>
<polygon fill="none" stroke="#000000" points="2600,-214 2600,-266 2930,-266 2930,-214 2600,-214"/>
</g>
<g id="clust56" class="cluster">
<title>cluster_DashboardModule</title>
<polygon fill="none" stroke="#000000" stroke-dasharray="1,5" points="4757,-70 4757,-274 5653,-274 5653,-70 4757,-70"/>
</g>
<g id="clust57" class="cluster">
<title>cluster_DashboardModule_declarations</title>
<polygon fill="none" stroke="#000000" points="4765,-78 4765,-130 5645,-130 5645,-78 4765,-78"/>
</g>
<g id="clust64" class="cluster">
<title>cluster_DashboardModule_exports</title>
<polygon fill="none" stroke="#000000" points="5132,-214 5132,-266 5294,-266 5294,-214 5132,-214"/>
</g>
<g id="clust67" class="cluster">
<title>cluster_FacturesModule</title>
<polygon fill="none" stroke="#000000" stroke-dasharray="1,5" points="5661,-70 5661,-274 5857,-274 5857,-70 5661,-70"/>
</g>
<g id="clust68" class="cluster">
<title>cluster_FacturesModule_declarations</title>
<polygon fill="none" stroke="#000000" points="5671,-78 5671,-130 5847,-130 5847,-78 5671,-78"/>
</g>
<g id="clust71" class="cluster">
<title>cluster_FacturesModule_exports</title>
<polygon fill="none" stroke="#000000" points="5669,-214 5669,-266 5849,-266 5849,-214 5669,-214"/>
</g>
<g id="clust74" class="cluster">
<title>cluster_FournisseursModule</title>
<polygon fill="none" stroke="#000000" stroke-dasharray="1,5" points="3954,-70 3954,-274 4375,-274 4375,-70 3954,-70"/>
</g>
<g id="clust75" class="cluster">
<title>cluster_FournisseursModule_declarations</title>
<polygon fill="none" stroke="#000000" points="3962,-78 3962,-130 4367,-130 4367,-78 3962,-78"/>
</g>
<g id="clust79" class="cluster">
<title>cluster_FournisseursModule_exports</title>
<polygon fill="none" stroke="#000000" points="3962,-214 3962,-266 4162,-266 4162,-214 3962,-214"/>
</g>
<g id="clust82" class="cluster">
<title>cluster_ProduitsModule</title>
<polygon fill="none" stroke="#000000" stroke-dasharray="1,5" points="4383,-70 4383,-274 4749,-274 4749,-70 4383,-70"/>
</g>
<g id="clust83" class="cluster">
<title>cluster_ProduitsModule_declarations</title>
<polygon fill="none" stroke="#000000" points="4391,-78 4391,-130 4741,-130 4741,-78 4391,-78"/>
</g>
<g id="clust87" class="cluster">
<title>cluster_ProduitsModule_exports</title>
<polygon fill="none" stroke="#000000" points="4419,-214 4419,-266 4567,-266 4567,-214 4419,-214"/>
</g>
<g id="clust90" class="cluster">
<title>cluster_SharedModule</title>
<polygon fill="none" stroke="#000000" stroke-dasharray="1,5" points="3578,-138 3578,-206 3946,-206 3946,-138 3578,-138"/>
</g>
<g id="clust91" class="cluster">
<title>cluster_SharedModule_declarations</title>
<polygon fill="none" stroke="#000000" points="3768,-146 3768,-198 3938,-198 3938,-146 3768,-146"/>
</g>
<g id="clust94" class="cluster">
<title>cluster_SharedModule_exports</title>
<polygon fill="none" stroke="#000000" points="3586,-146 3586,-198 3760,-198 3760,-146 3586,-146"/>
</g>
<g id="clust97" class="cluster">
<title>cluster_UsersModule</title>
<polygon fill="none" stroke="#000000" stroke-dasharray="1,5" points="5865,-70 5865,-274 6572,-274 6572,-70 5865,-70"/>
</g>
<g id="clust98" class="cluster">
<title>cluster_UsersModule_declarations</title>
<polygon fill="none" stroke="#000000" points="5873,-78 5873,-130 6564,-130 6564,-78 5873,-78"/>
</g>
<g id="clust104" class="cluster">
<title>cluster_UsersModule_exports</title>
<polygon fill="none" stroke="#000000" points="6142,-214 6142,-266 6304,-266 6304,-214 6142,-214"/>
</g>
<!-- AnnoncesComponent -->
<g id="node1" class="node">
<title>AnnoncesComponent</title>
<polygon fill="#ffffb3" stroke="#000000" points="526.8132,-122 389.1868,-122 389.1868,-86 526.8132,-86 526.8132,-122"/>
<text text-anchor="middle" x="458" y="-99.8" font-family="Times,serif" font-size="14.00" fill="#000000">AnnoncesComponent</text>
</g>
<!-- AnnoncesModule -->
<g id="node4" class="node">
<title>AnnoncesModule</title>
<polygon fill="#8dd3c7" stroke="#000000" points="347.5312,-190 344.5312,-194 323.5312,-194 320.5312,-190 232.4688,-190 232.4688,-154 347.5312,-154 347.5312,-190"/>
<text text-anchor="middle" x="290" y="-167.8" font-family="Times,serif" font-size="14.00" fill="#000000">AnnoncesModule</text>
</g>
<!-- AnnoncesComponent&#45;&gt;AnnoncesModule -->
<g id="edge1" class="edge">
<title>AnnoncesComponent&#45;&gt;AnnoncesModule</title>
<path fill="none" stroke="#000000" d="M458,-122.2921C458,-144.2057 458,-178 458,-178 458,-178 357.8161,-178 357.8161,-178"/>
<polygon fill="#000000" stroke="#000000" points="357.8161,-174.5001 347.8161,-178 357.816,-181.5001 357.8161,-174.5001"/>
</g>
<!-- CreerAnnonceComponent -->
<g id="node2" class="node">
<title>CreerAnnonceComponent</title>
<polygon fill="#ffffb3" stroke="#000000" points="371.4552,-122 208.5448,-122 208.5448,-86 371.4552,-86 371.4552,-122"/>
<text text-anchor="middle" x="290" y="-99.8" font-family="Times,serif" font-size="14.00" fill="#000000">CreerAnnonceComponent</text>
</g>
<!-- CreerAnnonceComponent&#45;&gt;AnnoncesModule -->
<g id="edge2" class="edge">
<title>CreerAnnonceComponent&#45;&gt;AnnoncesModule</title>
<path fill="none" stroke="#000000" d="M290,-122.2228C290,-122.2228 290,-143.7269 290,-143.7269"/>
<polygon fill="#000000" stroke="#000000" points="286.5001,-143.7269 290,-153.7269 293.5001,-143.727 286.5001,-143.7269"/>
</g>
<!-- ModifAnnonceComponent -->
<g id="node3" class="node">
<title>ModifAnnonceComponent</title>
<polygon fill="#ffffb3" stroke="#000000" points="190.3641,-122 23.6359,-122 23.6359,-86 190.3641,-86 190.3641,-122"/>
<text text-anchor="middle" x="107" y="-99.8" font-family="Times,serif" font-size="14.00" fill="#000000">ModifAnnonceComponent</text>
</g>
<!-- ModifAnnonceComponent&#45;&gt;AnnoncesModule -->
<g id="edge3" class="edge">
<title>ModifAnnonceComponent&#45;&gt;AnnoncesModule</title>
<path fill="none" stroke="#000000" d="M107,-122.2228C107,-142.3652 107,-172 107,-172 107,-172 222.3488,-172 222.3488,-172"/>
<polygon fill="#000000" stroke="#000000" points="222.3489,-175.5001 232.3488,-172 222.3488,-168.5001 222.3489,-175.5001"/>
</g>
<!-- ContactFournisseurHorsConnexionComponent -->
<g id="node5" class="node">
<title>ContactFournisseurHorsConnexionComponent</title>
<polygon fill="#ffffb3" stroke="#000000" points="1126.4776,-122 935.5224,-122 935.5224,-86 1126.4776,-86 1126.4776,-122"/>
<text text-anchor="middle" x="1031" y="-99.8" font-family="Times,serif" font-size="14.00" fill="#000000">ContactFournisseurHorsConnexionComponent</text>
</g>
<!-- AnnuaireModule -->
<g id="node8" class="node">
<title>AnnuaireModule</title>
<polygon fill="#8dd3c7" stroke="#000000" points="889.6374,-190 886.6374,-194 865.6374,-194 862.6374,-190 778.3626,-190 778.3626,-154 889.6374,-154 889.6374,-190"/>
<text text-anchor="middle" x="834" y="-167.8" font-family="Times,serif" font-size="14.00" fill="#000000">AnnuaireModule</text>
</g>
<!-- ContactFournisseurHorsConnexionComponent&#45;&gt;AnnuaireModule -->
<g id="edge4" class="edge">
<title>ContactFournisseurHorsConnexionComponent&#45;&gt;AnnuaireModule</title>
<path fill="none" stroke="#000000" d="M1031,-122.027C1031,-138.3976 1031,-160 1031,-160 1031,-160 899.6624,-160 899.6624,-160"/>
<polygon fill="#000000" stroke="#000000" points="899.6624,-156.5001 889.6624,-160 899.6623,-163.5001 899.6624,-156.5001"/>
</g>
<!-- DetailAnnonceHorsConnexionComponent -->
<g id="node6" class="node">
<title>DetailAnnonceHorsConnexionComponent</title>
<polygon fill="#ffffb3" stroke="#000000" points="917.0758,-122 750.9242,-122 750.9242,-86 917.0758,-86 917.0758,-122"/>
<text text-anchor="middle" x="834" y="-99.8" font-family="Times,serif" font-size="14.00" fill="#000000">DetailAnnonceHorsConnexionComponent</text>
</g>
<!-- DetailAnnonceHorsConnexionComponent&#45;&gt;AnnuaireModule -->
<g id="edge5" class="edge">
<title>DetailAnnonceHorsConnexionComponent&#45;&gt;AnnuaireModule</title>
<path fill="none" stroke="#000000" d="M834,-122.2228C834,-122.2228 834,-143.7269 834,-143.7269"/>
<polygon fill="#000000" stroke="#000000" points="830.5001,-143.7269 834,-153.7269 837.5001,-143.727 830.5001,-143.7269"/>
</g>
<!-- ListeAnnoncesHorsConnexionComponent -->
<g id="node7" class="node">
<title>ListeAnnoncesHorsConnexionComponent</title>
<polygon fill="#ffffb3" stroke="#000000" points="732.8061,-122 567.1939,-122 567.1939,-86 732.8061,-86 732.8061,-122"/>
<text text-anchor="middle" x="650" y="-99.8" font-family="Times,serif" font-size="14.00" fill="#000000">ListeAnnoncesHorsConnexionComponent</text>
</g>
<!-- ListeAnnoncesHorsConnexionComponent&#45;&gt;AnnuaireModule -->
<g id="edge6" class="edge">
<title>ListeAnnoncesHorsConnexionComponent&#45;&gt;AnnuaireModule</title>
<path fill="none" stroke="#000000" d="M650,-122.2667C650,-140.5552 650,-166 650,-166 650,-166 768.2946,-166 768.2946,-166"/>
<polygon fill="#000000" stroke="#000000" points="768.2946,-169.5001 778.2946,-166 768.2946,-162.5001 768.2946,-169.5001"/>
</g>
<!-- MenuFournisseurComponent -->
<g id="node9" class="node">
<title>MenuFournisseurComponent</title>
<polygon fill="#ffffb3" stroke="#000000" points="1746.9172,-122 1599.0828,-122 1599.0828,-86 1746.9172,-86 1746.9172,-122"/>
<text text-anchor="middle" x="1673" y="-99.8" font-family="Times,serif" font-size="14.00" fill="#000000">MenuFournisseurComponent</text>
</g>
<!-- AppModule -->
<g id="node17" class="node">
<title>AppModule</title>
<polygon fill="#8dd3c7" stroke="#000000" points="1883.6571,-190 1880.6571,-194 1859.6571,-194 1856.6571,-190 1800.3429,-190 1800.3429,-154 1883.6571,-154 1883.6571,-190"/>
<text text-anchor="middle" x="1842" y="-167.8" font-family="Times,serif" font-size="14.00" fill="#000000">AppModule</text>
</g>
<!-- MenuFournisseurComponent&#45;&gt;AppModule -->
<g id="edge7" class="edge">
<title>MenuFournisseurComponent&#45;&gt;AppModule</title>
<path fill="none" stroke="#000000" d="M1673,-122.2667C1673,-140.5552 1673,-166 1673,-166 1673,-166 1790.2247,-166 1790.2247,-166"/>
<polygon fill="#000000" stroke="#000000" points="1790.2247,-169.5001 1800.2247,-166 1790.2247,-162.5001 1790.2247,-169.5001"/>
</g>
<!-- AppComponent -->
<g id="node10" class="node">
<title>AppComponent</title>
<polygon fill="#ffffb3" stroke="#000000" points="1581.9399,-122 1476.0601,-122 1476.0601,-86 1581.9399,-86 1581.9399,-122"/>
<text text-anchor="middle" x="1529" y="-99.8" font-family="Times,serif" font-size="14.00" fill="#000000">AppComponent</text>
</g>
<!-- AppComponent&#45;&gt;AppModule -->
<g id="edge8" class="edge">
<title>AppComponent&#45;&gt;AppModule</title>
<path fill="none" stroke="#000000" d="M1529,-122.2228C1529,-142.3652 1529,-172 1529,-172 1529,-172 1790.1122,-172 1790.1122,-172"/>
<polygon fill="#000000" stroke="#000000" points="1790.1122,-175.5001 1800.1122,-172 1790.1122,-168.5001 1790.1122,-175.5001"/>
</g>
<!-- CoreComponent -->
<g id="node11" class="node">
<title>CoreComponent</title>
<polygon fill="#ffffb3" stroke="#000000" points="2416.0452,-122 2307.9548,-122 2307.9548,-86 2416.0452,-86 2416.0452,-122"/>
<text text-anchor="middle" x="2362" y="-99.8" font-family="Times,serif" font-size="14.00" fill="#000000">CoreComponent</text>
</g>
<!-- CoreComponent&#45;&gt;AppModule -->
<g id="edge9" class="edge">
<title>CoreComponent&#45;&gt;AppModule</title>
<path fill="none" stroke="#000000" d="M2343.9093,-122.0109C2343.9093,-144.4852 2343.9093,-180 2343.9093,-180 2343.9093,-180 1893.9292,-180 1893.9292,-180"/>
<polygon fill="#000000" stroke="#000000" points="1893.9293,-176.5001 1883.9292,-180 1893.9292,-183.5001 1893.9293,-176.5001"/>
</g>
<!-- CoreModule -->
<g id="node28" class="node">
<title>CoreModule</title>
<polygon fill="#8dd3c7" stroke="#000000" points="2686.2619,-190 2683.2619,-194 2662.2619,-194 2659.2619,-190 2599.7381,-190 2599.7381,-154 2686.2619,-154 2686.2619,-190"/>
<text text-anchor="middle" x="2643" y="-167.8" font-family="Times,serif" font-size="14.00" fill="#000000">CoreModule</text>
</g>
<!-- CoreComponent&#45;&gt;CoreModule -->
<g id="edge24" class="edge">
<title>CoreComponent&#45;&gt;CoreModule</title>
<path fill="none" stroke="#000000" d="M2380.0907,-122.027C2380.0907,-138.3976 2380.0907,-160 2380.0907,-160 2380.0907,-160 2589.5859,-160 2589.5859,-160"/>
<polygon fill="#000000" stroke="#000000" points="2589.5859,-163.5001 2599.5859,-160 2589.5858,-156.5001 2589.5859,-163.5001"/>
</g>
<!-- CoreFournisseursComponent -->
<g id="node12" class="node">
<title>CoreFournisseursComponent</title>
<polygon fill="#ffffb3" stroke="#000000" points="2290.087,-122 2109.913,-122 2109.913,-86 2290.087,-86 2290.087,-122"/>
<text text-anchor="middle" x="2200" y="-99.8" font-family="Times,serif" font-size="14.00" fill="#000000">CoreFournisseursComponent</text>
</g>
<!-- CoreFournisseursComponent&#45;&gt;AppModule -->
<g id="edge10" class="edge">
<title>CoreFournisseursComponent&#45;&gt;AppModule</title>
<path fill="none" stroke="#000000" d="M2169.9855,-122.2843C2169.9855,-143.3211 2169.9855,-175 2169.9855,-175 2169.9855,-175 1893.8727,-175 1893.8727,-175"/>
<polygon fill="#000000" stroke="#000000" points="1893.8728,-171.5001 1883.8727,-175 1893.8727,-178.5001 1893.8728,-171.5001"/>
</g>
<!-- CoreFournisseursComponent&#45;&gt;CoreModule -->
<g id="edge27" class="edge">
<title>CoreFournisseursComponent&#45;&gt;CoreModule</title>
<path fill="none" stroke="#000000" d="M2230.0145,-122.302C2230.0145,-140.2699 2230.0145,-165 2230.0145,-165 2230.0145,-165 2589.5839,-165 2589.5839,-165"/>
<polygon fill="#000000" stroke="#000000" points="2589.5839,-168.5001 2599.5839,-165 2589.5838,-161.5001 2589.5839,-168.5001"/>
</g>
<!-- DialogGuardComponent -->
<g id="node13" class="node">
<title>DialogGuardComponent</title>
<polygon fill="#ffffb3" stroke="#000000" points="2092.4172,-122 1937.5828,-122 1937.5828,-86 2092.4172,-86 2092.4172,-122"/>
<text text-anchor="middle" x="2015" y="-99.8" font-family="Times,serif" font-size="14.00" fill="#000000">DialogGuardComponent</text>
</g>
<!-- DialogGuardComponent&#45;&gt;AppModule -->
<g id="edge11" class="edge">
<title>DialogGuardComponent&#45;&gt;AppModule</title>
<path fill="none" stroke="#000000" d="M2015,-122.0348C2015,-141.5762 2015,-170 2015,-170 2015,-170 1893.8785,-170 1893.8785,-170"/>
<polygon fill="#000000" stroke="#000000" points="1893.8785,-166.5001 1883.8785,-170 1893.8784,-173.5001 1893.8785,-166.5001"/>
</g>
<!-- LandingPageComponent -->
<g id="node14" class="node">
<title>LandingPageComponent</title>
<polygon fill="#ffffb3" stroke="#000000" points="1919.7021,-122 1764.2979,-122 1764.2979,-86 1919.7021,-86 1919.7021,-122"/>
<text text-anchor="middle" x="1842" y="-99.8" font-family="Times,serif" font-size="14.00" fill="#000000">LandingPageComponent</text>
</g>
<!-- LandingPageComponent&#45;&gt;AppModule -->
<g id="edge12" class="edge">
<title>LandingPageComponent&#45;&gt;AppModule</title>
<path fill="none" stroke="#000000" d="M1842,-122.2228C1842,-122.2228 1842,-143.7269 1842,-143.7269"/>
<polygon fill="#000000" stroke="#000000" points="1838.5001,-143.7269 1842,-153.7269 1845.5001,-143.727 1838.5001,-143.7269"/>
</g>
<!-- NotificationComponent -->
<g id="node15" class="node">
<title>NotificationComponent</title>
<polygon fill="#ffffb3" stroke="#000000" points="1458.4818,-122 1309.5182,-122 1309.5182,-86 1458.4818,-86 1458.4818,-122"/>
<text text-anchor="middle" x="1384" y="-99.8" font-family="Times,serif" font-size="14.00" fill="#000000">NotificationComponent</text>
</g>
<!-- NotificationComponent&#45;&gt;AppModule -->
<g id="edge13" class="edge">
<title>NotificationComponent&#45;&gt;AppModule</title>
<path fill="none" stroke="#000000" d="M1384,-122.2921C1384,-144.2057 1384,-178 1384,-178 1384,-178 1790.1414,-178 1790.1414,-178"/>
<polygon fill="#000000" stroke="#000000" points="1790.1414,-181.5001 1800.1414,-178 1790.1414,-174.5001 1790.1414,-181.5001"/>
</g>
<!-- OptionsComponent -->
<g id="node16" class="node">
<title>OptionsComponent</title>
<polygon fill="#ffffb3" stroke="#000000" points="1291.6652,-122 1166.3348,-122 1166.3348,-86 1291.6652,-86 1291.6652,-122"/>
<text text-anchor="middle" x="1229" y="-99.8" font-family="Times,serif" font-size="14.00" fill="#000000">OptionsComponent</text>
</g>
<!-- OptionsComponent&#45;&gt;AppModule -->
<g id="edge14" class="edge">
<title>OptionsComponent&#45;&gt;AppModule</title>
<path fill="none" stroke="#000000" d="M1229,-122.1532C1229,-145.7566 1229,-184 1229,-184 1229,-184 1789.866,-184 1789.866,-184"/>
<polygon fill="#000000" stroke="#000000" points="1789.8661,-187.5001 1799.866,-184 1789.866,-180.5001 1789.8661,-187.5001"/>
</g>
<!-- AppComponent  -->
<g id="node19" class="node">
<title>AppComponent </title>
<polygon fill="#80b1d3" stroke="#000000" points="1896.439,-258 1787.561,-258 1787.561,-222 1896.439,-222 1896.439,-258"/>
<text text-anchor="middle" x="1842" y="-235.8" font-family="Times,serif" font-size="14.00" fill="#000000">AppComponent </text>
</g>
<!-- AppModule&#45;&gt;AppComponent  -->
<g id="edge16" class="edge">
<title>AppModule&#45;&gt;AppComponent </title>
<path fill="none" stroke="#000000" stroke-dasharray="1,5" d="M1842,-190.2228C1842,-190.2228 1842,-211.7269 1842,-211.7269"/>
<polygon fill="#000000" stroke="#000000" points="1838.5001,-211.7269 1842,-221.7269 1845.5001,-211.727 1838.5001,-211.7269"/>
</g>
<!-- AppRoutingModule -->
<g id="node18" class="node">
<title>AppRoutingModule</title>
<polygon fill="#8dd3c7" stroke="#000000" points="2568.2744,-122 2565.2744,-126 2544.2744,-126 2541.2744,-122 2439.7256,-122 2439.7256,-86 2568.2744,-86 2568.2744,-122"/>
<text text-anchor="middle" x="2504" y="-99.8" font-family="Times,serif" font-size="14.00" fill="#000000">AppRoutingModule</text>
</g>
<!-- AppRoutingModule&#45;&gt;AppModule -->
<g id="edge15" class="edge">
<title>AppRoutingModule&#45;&gt;AppModule</title>
<path fill="none" stroke="#000000" d="M2504,-122.3802C2504,-146.2785 2504,-185 2504,-185 2504,-185 1893.6618,-185 1893.6618,-185"/>
<polygon fill="#000000" stroke="#000000" points="1893.6619,-181.5001 1883.6618,-185 1893.6618,-188.5001 1893.6619,-181.5001"/>
</g>
<!-- AppRoutingModule&#45;&gt;CoreModule -->
<g id="edge25" class="edge">
<title>AppRoutingModule&#45;&gt;CoreModule</title>
<path fill="none" stroke="#000000" d="M2568.4586,-110C2598.8471,-110 2628.5397,-110 2628.5397,-110 2628.5397,-110 2628.5397,-143.7333 2628.5397,-143.7333"/>
<polygon fill="#000000" stroke="#000000" points="2625.0398,-143.7333 2628.5397,-153.7333 2632.0398,-143.7333 2625.0398,-143.7333"/>
</g>
<!-- AppRoutingModule&#45;&gt;CoreModule -->
<g id="edge28" class="edge">
<title>AppRoutingModule&#45;&gt;CoreModule</title>
<path fill="none" stroke="#000000" d="M2568.6362,-98C2610.5758,-98 2657.4603,-98 2657.4603,-98 2657.4603,-98 2657.4603,-143.7079 2657.4603,-143.7079"/>
<polygon fill="#000000" stroke="#000000" points="2653.9604,-143.7078 2657.4603,-153.7079 2660.9604,-143.7079 2653.9604,-143.7078"/>
</g>
<!-- ClientDetailComponent -->
<g id="node20" class="node">
<title>ClientDetailComponent</title>
<polygon fill="#ffffb3" stroke="#000000" points="3431.7632,-122 3282.2368,-122 3282.2368,-86 3431.7632,-86 3431.7632,-122"/>
<text text-anchor="middle" x="3357" y="-99.8" font-family="Times,serif" font-size="14.00" fill="#000000">ClientDetailComponent</text>
</g>
<!-- ClientsModule -->
<g id="node23" class="node">
<title>ClientsModule</title>
<polygon fill="#8dd3c7" stroke="#000000" points="3328.7176,-190 3325.7176,-194 3304.7176,-194 3301.7176,-190 3229.2824,-190 3229.2824,-154 3328.7176,-154 3328.7176,-190"/>
<text text-anchor="middle" x="3279" y="-167.8" font-family="Times,serif" font-size="14.00" fill="#000000">ClientsModule</text>
</g>
<!-- ClientDetailComponent&#45;&gt;ClientsModule -->
<g id="edge17" class="edge">
<title>ClientDetailComponent&#45;&gt;ClientsModule</title>
<path fill="none" stroke="#000000" d="M3305.3636,-122.2228C3305.3636,-122.2228 3305.3636,-143.7269 3305.3636,-143.7269"/>
<polygon fill="#000000" stroke="#000000" points="3301.8637,-143.7269 3305.3636,-153.7269 3308.8637,-143.727 3301.8637,-143.7269"/>
</g>
<!-- ClientFacturesComponent -->
<g id="node21" class="node">
<title>ClientFacturesComponent</title>
<polygon fill="#ffffb3" stroke="#000000" points="3264.4776,-122 3101.5224,-122 3101.5224,-86 3264.4776,-86 3264.4776,-122"/>
<text text-anchor="middle" x="3183" y="-99.8" font-family="Times,serif" font-size="14.00" fill="#000000">ClientFacturesComponent</text>
</g>
<!-- ClientFacturesComponent&#45;&gt;ClientsModule -->
<g id="edge18" class="edge">
<title>ClientFacturesComponent&#45;&gt;ClientsModule</title>
<path fill="none" stroke="#000000" d="M3246.9401,-122.2228C3246.9401,-122.2228 3246.9401,-143.7269 3246.9401,-143.7269"/>
<polygon fill="#000000" stroke="#000000" points="3243.4401,-143.7269 3246.9401,-153.7269 3250.4401,-143.727 3243.4401,-143.7269"/>
</g>
<!-- ClientsComponent -->
<g id="node22" class="node">
<title>ClientsComponent</title>
<polygon fill="#ffffb3" stroke="#000000" points="3083.5,-122 2962.5,-122 2962.5,-86 3083.5,-86 3083.5,-122"/>
<text text-anchor="middle" x="3023" y="-99.8" font-family="Times,serif" font-size="14.00" fill="#000000">ClientsComponent</text>
</g>
<!-- ClientsComponent&#45;&gt;ClientsModule -->
<g id="edge19" class="edge">
<title>ClientsComponent&#45;&gt;ClientsModule</title>
<path fill="none" stroke="#000000" d="M3050.6306,-122.0225C3050.6306,-139.3734 3050.6306,-163 3050.6306,-163 3050.6306,-163 3219.1656,-163 3219.1656,-163"/>
<polygon fill="#000000" stroke="#000000" points="3219.1656,-166.5001 3229.1656,-163 3219.1655,-159.5001 3219.1656,-166.5001"/>
</g>
<!-- ClientDetailComponent  -->
<g id="node25" class="node">
<title>ClientDetailComponent </title>
<polygon fill="#fb8072" stroke="#000000" points="3355.7632,-258 3202.2368,-258 3202.2368,-222 3355.7632,-222 3355.7632,-258"/>
<text text-anchor="middle" x="3279" y="-235.8" font-family="Times,serif" font-size="14.00" fill="#000000">ClientDetailComponent </text>
</g>
<!-- ClientsModule&#45;&gt;ClientDetailComponent  -->
<g id="edge21" class="edge">
<title>ClientsModule&#45;&gt;ClientDetailComponent </title>
<path fill="none" stroke="#000000" stroke-dasharray="5,2" d="M3279,-190.2228C3279,-190.2228 3279,-211.7269 3279,-211.7269"/>
<polygon fill="#000000" stroke="#000000" points="3275.5001,-211.7269 3279,-221.7269 3282.5001,-211.727 3275.5001,-211.7269"/>
</g>
<!-- ClientFacturesComponent  -->
<g id="node26" class="node">
<title>ClientFacturesComponent </title>
<polygon fill="#fb8072" stroke="#000000" points="3184.4783,-258 3017.5217,-258 3017.5217,-222 3184.4783,-222 3184.4783,-258"/>
<text text-anchor="middle" x="3101" y="-235.8" font-family="Times,serif" font-size="14.00" fill="#000000">ClientFacturesComponent </text>
</g>
<!-- ClientsModule&#45;&gt;ClientFacturesComponent  -->
<g id="edge22" class="edge">
<title>ClientsModule&#45;&gt;ClientFacturesComponent </title>
<path fill="none" stroke="#000000" stroke-dasharray="5,2" d="M3229.085,-181C3190.235,-181 3142.875,-181 3142.875,-181 3142.875,-181 3142.875,-211.9775 3142.875,-211.9775"/>
<polygon fill="#000000" stroke="#000000" points="3139.3751,-211.9774 3142.875,-221.9775 3146.3751,-211.9775 3139.3751,-211.9774"/>
</g>
<!-- ClientsComponent  -->
<g id="node27" class="node">
<title>ClientsComponent </title>
<polygon fill="#fb8072" stroke="#000000" points="3498.501,-258 3373.499,-258 3373.499,-222 3498.501,-222 3498.501,-258"/>
<text text-anchor="middle" x="3436" y="-235.8" font-family="Times,serif" font-size="14.00" fill="#000000">ClientsComponent </text>
</g>
<!-- ClientsModule&#45;&gt;ClientsComponent  -->
<g id="edge23" class="edge">
<title>ClientsModule&#45;&gt;ClientsComponent </title>
<path fill="none" stroke="#000000" stroke-dasharray="5,2" d="M3328.6472,-181C3363.0937,-181 3402.8158,-181 3402.8158,-181 3402.8158,-181 3402.8158,-211.9775 3402.8158,-211.9775"/>
<polygon fill="#000000" stroke="#000000" points="3399.3158,-211.9774 3402.8158,-221.9775 3406.3158,-211.9775 3399.3158,-211.9774"/>
</g>
<!-- SharedModule -->
<g id="node24" class="node">
<title>SharedModule</title>
<polygon fill="#8dd3c7" stroke="#000000" points="3554.4231,-122 3551.4231,-126 3530.4231,-126 3527.4231,-122 3455.5769,-122 3455.5769,-86 3554.4231,-86 3554.4231,-122"/>
<text text-anchor="middle" x="3505" y="-99.8" font-family="Times,serif" font-size="14.00" fill="#000000">SharedModule</text>
</g>
<!-- SharedModule&#45;&gt;ClientsModule -->
<g id="edge20" class="edge">
<title>SharedModule&#45;&gt;ClientsModule</title>
<path fill="none" stroke="#000000" d="M3477.0195,-122.0225C3477.0195,-139.3734 3477.0195,-163 3477.0195,-163 3477.0195,-163 3338.7131,-163 3338.7131,-163"/>
<polygon fill="#000000" stroke="#000000" points="3338.7131,-159.5001 3328.7131,-163 3338.713,-166.5001 3338.7131,-159.5001"/>
</g>
<!-- FournisseursModule -->
<g id="node43" class="node">
<title>FournisseursModule</title>
<polygon fill="#8dd3c7" stroke="#000000" points="4126.5926,-190 4123.5926,-194 4102.5926,-194 4099.5926,-190 3995.4074,-190 3995.4074,-154 4126.5926,-154 4126.5926,-190"/>
<text text-anchor="middle" x="4061" y="-167.8" font-family="Times,serif" font-size="14.00" fill="#000000">FournisseursModule</text>
</g>
<!-- SharedModule&#45;&gt;FournisseursModule -->
<g id="edge40" class="edge">
<title>SharedModule&#45;&gt;FournisseursModule</title>
<path fill="none" stroke="#000000" d="M3554.31,-98C3670.1405,-98 3949.8822,-98 3949.8822,-98 3949.8822,-98 3949.8822,-172 3949.8822,-172 3949.8822,-172 3985.3987,-172 3985.3987,-172"/>
<polygon fill="#000000" stroke="#000000" points="3985.3987,-175.5001 3995.3987,-172 3985.3986,-168.5001 3985.3987,-175.5001"/>
</g>
<!-- ProduitsModule -->
<g id="node47" class="node">
<title>ProduitsModule</title>
<polygon fill="#8dd3c7" stroke="#000000" points="4546.219,-190 4543.219,-194 4522.219,-194 4519.219,-190 4439.781,-190 4439.781,-154 4546.219,-154 4546.219,-190"/>
<text text-anchor="middle" x="4493" y="-167.8" font-family="Times,serif" font-size="14.00" fill="#000000">ProduitsModule</text>
</g>
<!-- SharedModule&#45;&gt;ProduitsModule -->
<g id="edge44" class="edge">
<title>SharedModule&#45;&gt;ProduitsModule</title>
<path fill="none" stroke="#000000" d="M3516.9037,-122.1944C3516.9037,-130.2782 3516.9037,-138 3516.9037,-138 3516.9037,-138 4475.2969,-138 4475.2969,-138 4475.2969,-138 4475.2969,-143.8056 4475.2969,-143.8056"/>
<polygon fill="#000000" stroke="#000000" points="4471.797,-143.8055 4475.2969,-153.8056 4478.797,-143.8056 4471.797,-143.8055"/>
</g>
<!-- InputReadOnlyDirective  -->
<g id="node50" class="node">
<title>InputReadOnlyDirective </title>
<polygon fill="#fb8072" stroke="#000000" points="3751.897,-190 3594.103,-190 3594.103,-154 3751.897,-154 3751.897,-190"/>
<text text-anchor="middle" x="3673" y="-167.8" font-family="Times,serif" font-size="14.00" fill="#000000">InputReadOnlyDirective </text>
</g>
<!-- SharedModule&#45;&gt;InputReadOnlyDirective  -->
<g id="edge47" class="edge">
<title>SharedModule&#45;&gt;InputReadOnlyDirective </title>
<path fill="none" stroke="#000000" stroke-dasharray="5,2" d="M3535.5574,-122.2228C3535.5574,-142.3652 3535.5574,-172 3535.5574,-172 3535.5574,-172 3583.8454,-172 3583.8454,-172"/>
<polygon fill="#000000" stroke="#000000" points="3583.8455,-175.5001 3593.8454,-172 3583.8454,-168.5001 3583.8455,-175.5001"/>
</g>
<!-- CoreComponent  -->
<g id="node29" class="node">
<title>CoreComponent </title>
<polygon fill="#fb8072" stroke="#000000" points="2922.0442,-258 2809.9558,-258 2809.9558,-222 2922.0442,-222 2922.0442,-258"/>
<text text-anchor="middle" x="2866" y="-235.8" font-family="Times,serif" font-size="14.00" fill="#000000">CoreComponent </text>
</g>
<!-- CoreModule&#45;&gt;CoreComponent  -->
<g id="edge26" class="edge">
<title>CoreModule&#45;&gt;CoreComponent </title>
<path fill="none" stroke="#000000" stroke-dasharray="5,2" d="M2686.526,-172C2751.4231,-172 2866,-172 2866,-172 2866,-172 2866,-211.7772 2866,-211.7772"/>
<polygon fill="#000000" stroke="#000000" points="2862.5001,-211.7772 2866,-221.7772 2869.5001,-211.7773 2862.5001,-211.7772"/>
</g>
<!-- CoreFournisseursComponent  -->
<g id="node30" class="node">
<title>CoreFournisseursComponent </title>
<polygon fill="#fb8072" stroke="#000000" points="2791.5875,-258 2608.4125,-258 2608.4125,-222 2791.5875,-222 2791.5875,-258"/>
<text text-anchor="middle" x="2700" y="-235.8" font-family="Times,serif" font-size="14.00" fill="#000000">CoreFournisseursComponent </text>
</g>
<!-- CoreModule&#45;&gt;CoreFournisseursComponent  -->
<g id="edge29" class="edge">
<title>CoreModule&#45;&gt;CoreFournisseursComponent </title>
<path fill="none" stroke="#000000" stroke-dasharray="5,2" d="M2647.2937,-190.2228C2647.2937,-190.2228 2647.2937,-211.7269 2647.2937,-211.7269"/>
<polygon fill="#000000" stroke="#000000" points="2643.7937,-211.7269 2647.2937,-221.7269 2650.7937,-211.727 2643.7937,-211.7269"/>
</g>
<!-- DashboardComponent -->
<g id="node31" class="node">
<title>DashboardComponent</title>
<polygon fill="#ffffb3" stroke="#000000" points="5442.9734,-122 5301.0266,-122 5301.0266,-86 5442.9734,-86 5442.9734,-122"/>
<text text-anchor="middle" x="5372" y="-99.8" font-family="Times,serif" font-size="14.00" fill="#000000">DashboardComponent</text>
</g>
<!-- DashboardModule -->
<g id="node36" class="node">
<title>DashboardModule</title>
<polygon fill="#8dd3c7" stroke="#000000" points="5273.191,-190 5270.191,-194 5249.191,-194 5246.191,-190 5152.809,-190 5152.809,-154 5273.191,-154 5273.191,-190"/>
<text text-anchor="middle" x="5213" y="-167.8" font-family="Times,serif" font-size="14.00" fill="#000000">DashboardModule</text>
</g>
<!-- DashboardComponent&#45;&gt;DashboardModule -->
<g id="edge30" class="edge">
<title>DashboardComponent&#45;&gt;DashboardModule</title>
<path fill="none" stroke="#000000" d="M5372,-122.2667C5372,-140.5552 5372,-166 5372,-166 5372,-166 5283.1111,-166 5283.1111,-166"/>
<polygon fill="#000000" stroke="#000000" points="5283.1111,-162.5001 5273.1111,-166 5283.111,-169.5001 5283.1111,-162.5001"/>
</g>
<!-- GraphiqueProduitsComponent -->
<g id="node32" class="node">
<title>GraphiqueProduitsComponent</title>
<polygon fill="#ffffb3" stroke="#000000" points="5283.42,-122 5142.58,-122 5142.58,-86 5283.42,-86 5283.42,-122"/>
<text text-anchor="middle" x="5213" y="-99.8" font-family="Times,serif" font-size="14.00" fill="#000000">GraphiqueProduitsComponent</text>
</g>
<!-- GraphiqueProduitsComponent&#45;&gt;DashboardModule -->
<g id="edge31" class="edge">
<title>GraphiqueProduitsComponent&#45;&gt;DashboardModule</title>
<path fill="none" stroke="#000000" d="M5213,-122.2228C5213,-122.2228 5213,-143.7269 5213,-143.7269"/>
<polygon fill="#000000" stroke="#000000" points="5209.5001,-143.7269 5213,-153.7269 5216.5001,-143.727 5209.5001,-143.7269"/>
</g>
<!-- TableauClientsComponent -->
<g id="node33" class="node">
<title>TableauClientsComponent</title>
<polygon fill="#ffffb3" stroke="#000000" points="5125.087,-122 4958.913,-122 4958.913,-86 5125.087,-86 5125.087,-122"/>
<text text-anchor="middle" x="5042" y="-99.8" font-family="Times,serif" font-size="14.00" fill="#000000">TableauClientsComponent</text>
</g>
<!-- TableauClientsComponent&#45;&gt;DashboardModule -->
<g id="edge32" class="edge">
<title>TableauClientsComponent&#45;&gt;DashboardModule</title>
<path fill="none" stroke="#000000" d="M5042,-122.2228C5042,-142.3652 5042,-172 5042,-172 5042,-172 5142.7118,-172 5142.7118,-172"/>
<polygon fill="#000000" stroke="#000000" points="5142.7118,-175.5001 5152.7118,-172 5142.7118,-168.5001 5142.7118,-175.5001"/>
</g>
<!-- TableauProduitComponent -->
<g id="node34" class="node">
<title>TableauProduitComponent</title>
<polygon fill="#ffffb3" stroke="#000000" points="4940.6442,-122 4773.3558,-122 4773.3558,-86 4940.6442,-86 4940.6442,-122"/>
<text text-anchor="middle" x="4857" y="-99.8" font-family="Times,serif" font-size="14.00" fill="#000000">TableauProduitComponent</text>
</g>
<!-- TableauProduitComponent&#45;&gt;DashboardModule -->
<g id="edge33" class="edge">
<title>TableauProduitComponent&#45;&gt;DashboardModule</title>
<path fill="none" stroke="#000000" d="M4857,-122.2479C4857,-145.0179 4857,-181 4857,-181 4857,-181 5142.6095,-181 5142.6095,-181"/>
<polygon fill="#000000" stroke="#000000" points="5142.6095,-184.5001 5152.6095,-181 5142.6094,-177.5001 5142.6095,-184.5001"/>
</g>
<!-- TopFournisseursComponent -->
<g id="node35" class="node">
<title>TopFournisseursComponent</title>
<polygon fill="#ffffb3" stroke="#000000" points="5636.9283,-122 5461.0717,-122 5461.0717,-86 5636.9283,-86 5636.9283,-122"/>
<text text-anchor="middle" x="5549" y="-99.8" font-family="Times,serif" font-size="14.00" fill="#000000">TopFournisseursComponent</text>
</g>
<!-- TopFournisseursComponent&#45;&gt;DashboardModule -->
<g id="edge34" class="edge">
<title>TopFournisseursComponent&#45;&gt;DashboardModule</title>
<path fill="none" stroke="#000000" d="M5549,-122.2921C5549,-144.2057 5549,-178 5549,-178 5549,-178 5283.4581,-178 5283.4581,-178"/>
<polygon fill="#000000" stroke="#000000" points="5283.4582,-174.5001 5273.4581,-178 5283.4581,-181.5001 5283.4582,-174.5001"/>
</g>
<!-- DashboardComponent  -->
<g id="node37" class="node">
<title>DashboardComponent </title>
<polygon fill="#fb8072" stroke="#000000" points="5285.9742,-258 5140.0258,-258 5140.0258,-222 5285.9742,-222 5285.9742,-258"/>
<text text-anchor="middle" x="5213" y="-235.8" font-family="Times,serif" font-size="14.00" fill="#000000">DashboardComponent </text>
</g>
<!-- DashboardModule&#45;&gt;DashboardComponent  -->
<g id="edge35" class="edge">
<title>DashboardModule&#45;&gt;DashboardComponent </title>
<path fill="none" stroke="#000000" stroke-dasharray="5,2" d="M5213,-190.2228C5213,-190.2228 5213,-211.7269 5213,-211.7269"/>
<polygon fill="#000000" stroke="#000000" points="5209.5001,-211.7269 5213,-221.7269 5216.5001,-211.727 5209.5001,-211.7269"/>
</g>
<!-- CreateFactureComponent -->
<g id="node38" class="node">
<title>CreateFactureComponent</title>
<polygon fill="#ffffb3" stroke="#000000" points="5838.8417,-122 5679.1583,-122 5679.1583,-86 5838.8417,-86 5838.8417,-122"/>
<text text-anchor="middle" x="5759" y="-99.8" font-family="Times,serif" font-size="14.00" fill="#000000">CreateFactureComponent</text>
</g>
<!-- FacturesModule -->
<g id="node39" class="node">
<title>FacturesModule</title>
<polygon fill="#8dd3c7" stroke="#000000" points="5812.472,-190 5809.472,-194 5788.472,-194 5785.472,-190 5705.528,-190 5705.528,-154 5812.472,-154 5812.472,-190"/>
<text text-anchor="middle" x="5759" y="-167.8" font-family="Times,serif" font-size="14.00" fill="#000000">FacturesModule</text>
</g>
<!-- CreateFactureComponent&#45;&gt;FacturesModule -->
<g id="edge36" class="edge">
<title>CreateFactureComponent&#45;&gt;FacturesModule</title>
<path fill="none" stroke="#000000" d="M5759,-122.2228C5759,-122.2228 5759,-143.7269 5759,-143.7269"/>
<polygon fill="#000000" stroke="#000000" points="5755.5001,-143.7269 5759,-153.7269 5762.5001,-143.727 5755.5001,-143.7269"/>
</g>
<!-- CreateFactureComponent  -->
<g id="node40" class="node">
<title>CreateFactureComponent </title>
<polygon fill="#fb8072" stroke="#000000" points="5840.842,-258 5677.158,-258 5677.158,-222 5840.842,-222 5840.842,-258"/>
<text text-anchor="middle" x="5759" y="-235.8" font-family="Times,serif" font-size="14.00" fill="#000000">CreateFactureComponent </text>
</g>
<!-- FacturesModule&#45;&gt;CreateFactureComponent  -->
<g id="edge37" class="edge">
<title>FacturesModule&#45;&gt;CreateFactureComponent </title>
<path fill="none" stroke="#000000" stroke-dasharray="5,2" d="M5759,-190.2228C5759,-190.2228 5759,-211.7269 5759,-211.7269"/>
<polygon fill="#000000" stroke="#000000" points="5755.5001,-211.7269 5759,-221.7269 5762.5001,-211.727 5755.5001,-211.7269"/>
</g>
<!-- DialogFournisseursComponent -->
<g id="node41" class="node">
<title>DialogFournisseursComponent</title>
<polygon fill="#ffffb3" stroke="#000000" points="4359.4776,-122 4168.5224,-122 4168.5224,-86 4359.4776,-86 4359.4776,-122"/>
<text text-anchor="middle" x="4264" y="-99.8" font-family="Times,serif" font-size="14.00" fill="#000000">DialogFournisseursComponent</text>
</g>
<!-- DialogFournisseursComponent&#45;&gt;FournisseursModule -->
<g id="edge38" class="edge">
<title>DialogFournisseursComponent&#45;&gt;FournisseursModule</title>
<path fill="none" stroke="#000000" d="M4264,-122.2228C4264,-142.3652 4264,-172 4264,-172 4264,-172 4136.6279,-172 4136.6279,-172"/>
<polygon fill="#000000" stroke="#000000" points="4136.628,-168.5001 4126.6279,-172 4136.6279,-175.5001 4136.628,-168.5001"/>
</g>
<!-- FournisseursListeComponent -->
<g id="node42" class="node">
<title>FournisseursListeComponent</title>
<polygon fill="#ffffb3" stroke="#000000" points="4150.3682,-122 3969.6318,-122 3969.6318,-86 4150.3682,-86 4150.3682,-122"/>
<text text-anchor="middle" x="4060" y="-99.8" font-family="Times,serif" font-size="14.00" fill="#000000">FournisseursListeComponent</text>
</g>
<!-- FournisseursListeComponent&#45;&gt;FournisseursModule -->
<g id="edge39" class="edge">
<title>FournisseursListeComponent&#45;&gt;FournisseursModule</title>
<path fill="none" stroke="#000000" d="M4061,-122.2228C4061,-122.2228 4061,-143.7269 4061,-143.7269"/>
<polygon fill="#000000" stroke="#000000" points="4057.5001,-143.7269 4061,-153.7269 4064.5001,-143.727 4057.5001,-143.7269"/>
</g>
<!-- FournisseursListeComponent  -->
<g id="node44" class="node">
<title>FournisseursListeComponent </title>
<polygon fill="#fb8072" stroke="#000000" points="4154.3686,-258 3969.6314,-258 3969.6314,-222 4154.3686,-222 4154.3686,-258"/>
<text text-anchor="middle" x="4062" y="-235.8" font-family="Times,serif" font-size="14.00" fill="#000000">FournisseursListeComponent </text>
</g>
<!-- FournisseursModule&#45;&gt;FournisseursListeComponent  -->
<g id="edge41" class="edge">
<title>FournisseursModule&#45;&gt;FournisseursListeComponent </title>
<path fill="none" stroke="#000000" stroke-dasharray="5,2" d="M4061,-190.2228C4061,-190.2228 4061,-211.7269 4061,-211.7269"/>
<polygon fill="#000000" stroke="#000000" points="4057.5001,-211.7269 4061,-221.7269 4064.5001,-211.727 4057.5001,-211.7269"/>
</g>
<!-- ProduitsComponent -->
<g id="node45" class="node">
<title>ProduitsComponent</title>
<polygon fill="#ffffb3" stroke="#000000" points="4733.0014,-122 4604.9986,-122 4604.9986,-86 4733.0014,-86 4733.0014,-122"/>
<text text-anchor="middle" x="4669" y="-99.8" font-family="Times,serif" font-size="14.00" fill="#000000">ProduitsComponent</text>
</g>
<!-- ProduitsComponent&#45;&gt;ProduitsModule -->
<g id="edge42" class="edge">
<title>ProduitsComponent&#45;&gt;ProduitsModule</title>
<path fill="none" stroke="#000000" d="M4669,-122.0225C4669,-139.3734 4669,-163 4669,-163 4669,-163 4556.2834,-163 4556.2834,-163"/>
<polygon fill="#000000" stroke="#000000" points="4556.2835,-159.5001 4546.2834,-163 4556.2834,-166.5001 4556.2835,-159.5001"/>
</g>
<!-- ProduitsHorsVenteComponent -->
<g id="node46" class="node">
<title>ProduitsHorsVenteComponent</title>
<polygon fill="#ffffb3" stroke="#000000" points="4587.1399,-122 4398.8601,-122 4398.8601,-86 4587.1399,-86 4587.1399,-122"/>
<text text-anchor="middle" x="4493" y="-99.8" font-family="Times,serif" font-size="14.00" fill="#000000">ProduitsHorsVenteComponent</text>
</g>
<!-- ProduitsHorsVenteComponent&#45;&gt;ProduitsModule -->
<g id="edge43" class="edge">
<title>ProduitsHorsVenteComponent&#45;&gt;ProduitsModule</title>
<path fill="none" stroke="#000000" d="M4510.7031,-122.2228C4510.7031,-122.2228 4510.7031,-143.7269 4510.7031,-143.7269"/>
<polygon fill="#000000" stroke="#000000" points="4507.2032,-143.7269 4510.7031,-153.7269 4514.2032,-143.727 4507.2032,-143.7269"/>
</g>
<!-- ProduitsComponent  -->
<g id="node48" class="node">
<title>ProduitsComponent </title>
<polygon fill="#fb8072" stroke="#000000" points="4558.5023,-258 4427.4977,-258 4427.4977,-222 4558.5023,-222 4558.5023,-258"/>
<text text-anchor="middle" x="4493" y="-235.8" font-family="Times,serif" font-size="14.00" fill="#000000">ProduitsComponent </text>
</g>
<!-- ProduitsModule&#45;&gt;ProduitsComponent  -->
<g id="edge45" class="edge">
<title>ProduitsModule&#45;&gt;ProduitsComponent </title>
<path fill="none" stroke="#000000" stroke-dasharray="5,2" d="M4493,-190.2228C4493,-190.2228 4493,-211.7269 4493,-211.7269"/>
<polygon fill="#000000" stroke="#000000" points="4489.5001,-211.7269 4493,-221.7269 4496.5001,-211.727 4489.5001,-211.7269"/>
</g>
<!-- InputReadOnlyDirective -->
<g id="node49" class="node">
<title>InputReadOnlyDirective</title>
<polygon fill="#ffffb3" stroke="#000000" points="3930.3975,-190 3775.6025,-190 3775.6025,-154 3930.3975,-154 3930.3975,-190"/>
<text text-anchor="middle" x="3853" y="-167.8" font-family="Times,serif" font-size="14.00" fill="#000000">InputReadOnlyDirective</text>
</g>
<!-- InputReadOnlyDirective&#45;&gt;SharedModule -->
<g id="edge46" class="edge">
<title>InputReadOnlyDirective&#45;&gt;SharedModule</title>
<path fill="none" stroke="#000000" d="M3853,-153.7333C3853,-135.4448 3853,-110 3853,-110 3853,-110 3564.4903,-110 3564.4903,-110"/>
<polygon fill="#000000" stroke="#000000" points="3564.4904,-106.5001 3554.4903,-110 3564.4903,-113.5001 3564.4904,-106.5001"/>
</g>
<!-- ChangePasswordComponent -->
<g id="node51" class="node">
<title>ChangePasswordComponent</title>
<polygon fill="#ffffb3" stroke="#000000" points="6218.752,-122 6041.248,-122 6041.248,-86 6218.752,-86 6218.752,-122"/>
<text text-anchor="middle" x="6130" y="-99.8" font-family="Times,serif" font-size="14.00" fill="#000000">ChangePasswordComponent</text>
</g>
<!-- UsersModule -->
<g id="node55" class="node">
<title>UsersModule</title>
<polygon fill="#8dd3c7" stroke="#000000" points="6268.9218,-190 6265.9218,-194 6244.9218,-194 6241.9218,-190 6177.0782,-190 6177.0782,-154 6268.9218,-154 6268.9218,-190"/>
<text text-anchor="middle" x="6223" y="-167.8" font-family="Times,serif" font-size="14.00" fill="#000000">UsersModule</text>
</g>
<!-- ChangePasswordComponent&#45;&gt;UsersModule -->
<g id="edge48" class="edge">
<title>ChangePasswordComponent&#45;&gt;UsersModule</title>
<path fill="none" stroke="#000000" d="M6198.0827,-122.2228C6198.0827,-122.2228 6198.0827,-143.7269 6198.0827,-143.7269"/>
<polygon fill="#000000" stroke="#000000" points="6194.5828,-143.7269 6198.0827,-153.7269 6201.5828,-143.727 6194.5828,-143.7269"/>
</g>
<!-- ConnexionComponent -->
<g id="node52" class="node">
<title>ConnexionComponent</title>
<polygon fill="#ffffb3" stroke="#000000" points="6023.2744,-122 5880.7256,-122 5880.7256,-86 6023.2744,-86 6023.2744,-122"/>
<text text-anchor="middle" x="5952" y="-99.8" font-family="Times,serif" font-size="14.00" fill="#000000">ConnexionComponent</text>
</g>
<!-- ConnexionComponent&#45;&gt;UsersModule -->
<g id="edge49" class="edge">
<title>ConnexionComponent&#45;&gt;UsersModule</title>
<path fill="none" stroke="#000000" d="M5952,-122.2228C5952,-142.3652 5952,-172 5952,-172 5952,-172 6167.0285,-172 6167.0285,-172"/>
<polygon fill="#000000" stroke="#000000" points="6167.0286,-175.5001 6177.0285,-172 6167.0285,-168.5001 6167.0286,-175.5001"/>
</g>
<!-- InscriptionComponent -->
<g id="node53" class="node">
<title>InscriptionComponent</title>
<polygon fill="#ffffb3" stroke="#000000" points="6555.9846,-122 6414.0154,-122 6414.0154,-86 6555.9846,-86 6555.9846,-122"/>
<text text-anchor="middle" x="6485" y="-99.8" font-family="Times,serif" font-size="14.00" fill="#000000">InscriptionComponent</text>
</g>
<!-- InscriptionComponent&#45;&gt;UsersModule -->
<g id="edge50" class="edge">
<title>InscriptionComponent&#45;&gt;UsersModule</title>
<path fill="none" stroke="#000000" d="M6485,-122.2228C6485,-142.3652 6485,-172 6485,-172 6485,-172 6278.9367,-172 6278.9367,-172"/>
<polygon fill="#000000" stroke="#000000" points="6278.9368,-168.5001 6268.9367,-172 6278.9367,-175.5001 6278.9368,-168.5001"/>
</g>
<!-- LightboxMailComponent -->
<g id="node54" class="node">
<title>LightboxMailComponent</title>
<polygon fill="#ffffb3" stroke="#000000" points="6395.6066,-122 6236.3934,-122 6236.3934,-86 6395.6066,-86 6395.6066,-122"/>
<text text-anchor="middle" x="6316" y="-99.8" font-family="Times,serif" font-size="14.00" fill="#000000">LightboxMailComponent</text>
</g>
<!-- LightboxMailComponent&#45;&gt;UsersModule -->
<g id="edge51" class="edge">
<title>LightboxMailComponent&#45;&gt;UsersModule</title>
<path fill="none" stroke="#000000" d="M6252.5786,-122.2228C6252.5786,-122.2228 6252.5786,-143.7269 6252.5786,-143.7269"/>
<polygon fill="#000000" stroke="#000000" points="6249.0786,-143.7269 6252.5786,-153.7269 6256.0786,-143.727 6249.0786,-143.7269"/>
</g>
<!-- ConnexionComponent  -->
<g id="node56" class="node">
<title>ConnexionComponent </title>
<polygon fill="#fb8072" stroke="#000000" points="6296.2745,-258 6149.7255,-258 6149.7255,-222 6296.2745,-222 6296.2745,-258"/>
<text text-anchor="middle" x="6223" y="-235.8" font-family="Times,serif" font-size="14.00" fill="#000000">ConnexionComponent </text>
</g>
<!-- UsersModule&#45;&gt;ConnexionComponent  -->
<g id="edge52" class="edge">
<title>UsersModule&#45;&gt;ConnexionComponent </title>
<path fill="none" stroke="#000000" stroke-dasharray="5,2" d="M6223,-190.2228C6223,-190.2228 6223,-211.7269 6223,-211.7269"/>
<polygon fill="#000000" stroke="#000000" points="6219.5001,-211.7269 6223,-221.7269 6226.5001,-211.727 6219.5001,-211.7269"/>
</g>
</g>
</svg>
