<?xml version="1.0" encoding="UTF-8" standalone="no"?>
<!DOCTYPE svg PUBLIC "-//W3C//DTD SVG 1.1//EN"
 "http://www.w3.org/Graphics/SVG/1.1/DTD/svg11.dtd">
<!-- Generated by graphviz version 2.40.1 (20161225.0304)
 -->
<!-- Title: dependencies Pages: 1 -->
<svg width="920pt" height="284pt"
 viewBox="0.00 0.00 920.00 284.00" xmlns="http://www.w3.org/2000/svg" xmlns:xlink="http://www.w3.org/1999/xlink">
<g id="graph0" class="graph" transform="scale(1 1) rotate(0) translate(4 280)">
<title>dependencies</title>
<polygon fill="#ffffff" stroke="transparent" points="-4,4 -4,-280 916,-280 916,4 -4,4"/>
<text text-anchor="start" x="435.0091" y="-42.4" font-family="sans-serif" font-weight="bold" font-size="14.00" fill="#000000">Legend</text>
<polygon fill="#ffffb3" stroke="transparent" points="222,-10 222,-30 242,-30 242,-10 222,-10"/>
<text text-anchor="start" x="245.629" y="-15.4" font-family="sans-serif" font-size="14.00" fill="#000000"> &#160;Declarations</text>
<polygon fill="#8dd3c7" stroke="transparent" points="335,-10 335,-30 355,-30 355,-10 335,-10"/>
<text text-anchor="start" x="358.7251" y="-15.4" font-family="sans-serif" font-size="14.00" fill="#000000"> &#160;Module</text>
<polygon fill="#80b1d3" stroke="transparent" points="421,-10 421,-30 441,-30 441,-10 421,-10"/>
<text text-anchor="start" x="444.7812" y="-15.4" font-family="sans-serif" font-size="14.00" fill="#000000"> &#160;Bootstrap</text>
<polygon fill="#fdb462" stroke="transparent" points="518,-10 518,-30 538,-30 538,-10 518,-10"/>
<text text-anchor="start" x="541.6732" y="-15.4" font-family="sans-serif" font-size="14.00" fill="#000000"> &#160;Providers</text>
<polygon fill="#fb8072" stroke="transparent" points="614,-10 614,-30 634,-30 634,-10 614,-10"/>
<text text-anchor="start" x="637.7258" y="-15.4" font-family="sans-serif" font-size="14.00" fill="#000000"> &#160;Exports</text>
<g id="clust1" class="cluster">
<title>cluster_DashboardModule</title>
<polygon fill="none" stroke="#000000" stroke-dasharray="1,5" points="8,-70 8,-268 904,-268 904,-70 8,-70"/>
</g>
<g id="clust2" class="cluster">
<title>cluster_DashboardModule_declarations</title>
<polygon fill="none" stroke="#000000" points="16,-78 16,-130 896,-130 896,-78 16,-78"/>
</g>
<g id="clust9" class="cluster">
<title>cluster_DashboardModule_exports</title>
<polygon fill="none" stroke="#000000" points="406,-208 406,-260 568,-260 568,-208 406,-208"/>
</g>
<!-- DashboardComponent -->
<g id="node1" class="node">
<title>DashboardComponent</title>
<polygon fill="#ffffb3" stroke="#000000" points="887.9734,-122 746.0266,-122 746.0266,-86 887.9734,-86 887.9734,-122"/>
<text text-anchor="middle" x="817" y="-99.8" font-family="Times,serif" font-size="14.00" fill="#000000">DashboardComponent</text>
</g>
<!-- DashboardModule -->
<g id="node6" class="node">
<title>DashboardModule</title>
<polygon fill="#8dd3c7" stroke="#000000" points="547.191,-187 544.191,-191 523.191,-191 520.191,-187 426.809,-187 426.809,-151 547.191,-151 547.191,-187"/>
<text text-anchor="middle" x="487" y="-164.8" font-family="Times,serif" font-size="14.00" fill="#000000">DashboardModule</text>
</g>
<!-- DashboardComponent&#45;&gt;DashboardModule -->
<g id="edge1" class="edge">
<title>DashboardComponent&#45;&gt;DashboardModule</title>
<path fill="none" stroke="#000000" d="M817,-122.2843C817,-143.3211 817,-175 817,-175 817,-175 557.1434,-175 557.1434,-175"/>
<polygon fill="#000000" stroke="#000000" points="557.1434,-171.5001 547.1434,-175 557.1433,-178.5001 557.1434,-171.5001"/>
</g>
<!-- GraphiqueProduitsComponent -->
<g id="node2" class="node">
<title>GraphiqueProduitsComponent</title>
<polygon fill="#ffffb3" stroke="#000000" points="728.42,-122 587.58,-122 587.58,-86 728.42,-86 728.42,-122"/>
<text text-anchor="middle" x="658" y="-99.8" font-family="Times,serif" font-size="14.00" fill="#000000">GraphiqueProduitsComponent</text>
</g>
<!-- GraphiqueProduitsComponent&#45;&gt;DashboardModule -->
<g id="edge2" class="edge">
<title>GraphiqueProduitsComponent&#45;&gt;DashboardModule</title>
<path fill="none" stroke="#000000" d="M658,-122.0225C658,-139.3734 658,-163 658,-163 658,-163 557.2882,-163 557.2882,-163"/>
<polygon fill="#000000" stroke="#000000" points="557.2882,-159.5001 547.2882,-163 557.2882,-166.5001 557.2882,-159.5001"/>
</g>
<!-- TableauClientsComponent -->
<g id="node3" class="node">
<title>TableauClientsComponent</title>
<polygon fill="#ffffb3" stroke="#000000" points="570.087,-122 403.913,-122 403.913,-86 570.087,-86 570.087,-122"/>
<text text-anchor="middle" x="487" y="-99.8" font-family="Times,serif" font-size="14.00" fill="#000000">TableauClientsComponent</text>
</g>
<!-- TableauClientsComponent&#45;&gt;DashboardModule -->
<g id="edge3" class="edge">
<title>TableauClientsComponent&#45;&gt;DashboardModule</title>
<path fill="none" stroke="#000000" d="M487,-122.1061C487,-122.1061 487,-140.991 487,-140.991"/>
<polygon fill="#000000" stroke="#000000" points="483.5001,-140.9909 487,-150.991 490.5001,-140.991 483.5001,-140.9909"/>
</g>
<!-- TableauProduitComponent -->
<g id="node4" class="node">
<title>TableauProduitComponent</title>
<polygon fill="#ffffb3" stroke="#000000" points="385.6442,-122 218.3558,-122 218.3558,-86 385.6442,-86 385.6442,-122"/>
<text text-anchor="middle" x="302" y="-99.8" font-family="Times,serif" font-size="14.00" fill="#000000">TableauProduitComponent</text>
</g>
<!-- TableauProduitComponent&#45;&gt;DashboardModule -->
<g id="edge4" class="edge">
<title>TableauProduitComponent&#45;&gt;DashboardModule</title>
<path fill="none" stroke="#000000" d="M302,-122.0225C302,-139.3734 302,-163 302,-163 302,-163 416.6801,-163 416.6801,-163"/>
<polygon fill="#000000" stroke="#000000" points="416.6801,-166.5001 426.6801,-163 416.68,-159.5001 416.6801,-166.5001"/>
</g>
<!-- TopFournisseursComponent -->
<g id="node5" class="node">
<title>TopFournisseursComponent</title>
<polygon fill="#ffffb3" stroke="#000000" points="199.9283,-122 24.0717,-122 24.0717,-86 199.9283,-86 199.9283,-122"/>
<text text-anchor="middle" x="112" y="-99.8" font-family="Times,serif" font-size="14.00" fill="#000000">TopFournisseursComponent</text>
</g>
<!-- TopFournisseursComponent&#45;&gt;DashboardModule -->
<g id="edge5" class="edge">
<title>TopFournisseursComponent&#45;&gt;DashboardModule</title>
<path fill="none" stroke="#000000" d="M112,-122.2843C112,-143.3211 112,-175 112,-175 112,-175 416.7498,-175 416.7498,-175"/>
<polygon fill="#000000" stroke="#000000" points="416.7498,-178.5001 426.7498,-175 416.7497,-171.5001 416.7498,-178.5001"/>
</g>
<!-- DashboardComponent  -->
<g id="node7" class="node">
<title>DashboardComponent </title>
<polygon fill="#fb8072" stroke="#000000" points="559.9742,-252 414.0258,-252 414.0258,-216 559.9742,-216 559.9742,-252"/>
<text text-anchor="middle" x="487" y="-229.8" font-family="Times,serif" font-size="14.00" fill="#000000">DashboardComponent </text>
</g>
<!-- DashboardModule&#45;&gt;DashboardComponent  -->
<g id="edge6" class="edge">
<title>DashboardModule&#45;&gt;DashboardComponent </title>
<path fill="none" stroke="#000000" stroke-dasharray="5,2" d="M487,-187.1061C487,-187.1061 487,-205.991 487,-205.991"/>
<polygon fill="#000000" stroke="#000000" points="483.5001,-205.9909 487,-215.991 490.5001,-205.991 483.5001,-205.9909"/>
</g>
</g>
</svg>
