<?xml version="1.0" encoding="UTF-8" standalone="no"?>
<!DOCTYPE svg PUBLIC "-//W3C//DTD SVG 1.1//EN"
 "http://www.w3.org/Graphics/SVG/1.1/DTD/svg11.dtd">
<!-- Generated by graphviz version 2.40.1 (20161225.0304)
 -->
<!-- Title: dependencies Pages: 1 -->
<svg width="567pt" height="284pt"
 viewBox="0.00 0.00 567.00 284.00" xmlns="http://www.w3.org/2000/svg" xmlns:xlink="http://www.w3.org/1999/xlink">
<g id="graph0" class="graph" transform="scale(1 1) rotate(0) translate(4 280)">
<title>dependencies</title>
<polygon fill="#ffffff" stroke="transparent" points="-4,4 -4,-280 563,-280 563,4 -4,4"/>
<text text-anchor="start" x="258.5091" y="-42.4" font-family="sans-serif" font-weight="bold" font-size="14.00" fill="#000000">Legend</text>
<polygon fill="#ffffb3" stroke="transparent" points="45.5,-10 45.5,-30 65.5,-30 65.5,-10 45.5,-10"/>
<text text-anchor="start" x="69.129" y="-15.4" font-family="sans-serif" font-size="14.00" fill="#000000"> &#160;Declarations</text>
<polygon fill="#8dd3c7" stroke="transparent" points="158.5,-10 158.5,-30 178.5,-30 178.5,-10 158.5,-10"/>
<text text-anchor="start" x="182.2251" y="-15.4" font-family="sans-serif" font-size="14.00" fill="#000000"> &#160;Module</text>
<polygon fill="#80b1d3" stroke="transparent" points="244.5,-10 244.5,-30 264.5,-30 264.5,-10 244.5,-10"/>
<text text-anchor="start" x="268.2812" y="-15.4" font-family="sans-serif" font-size="14.00" fill="#000000"> &#160;Bootstrap</text>
<polygon fill="#fdb462" stroke="transparent" points="341.5,-10 341.5,-30 361.5,-30 361.5,-10 341.5,-10"/>
<text text-anchor="start" x="365.1732" y="-15.4" font-family="sans-serif" font-size="14.00" fill="#000000"> &#160;Providers</text>
<polygon fill="#fb8072" stroke="transparent" points="437.5,-10 437.5,-30 457.5,-30 457.5,-10 437.5,-10"/>
<text text-anchor="start" x="461.2258" y="-15.4" font-family="sans-serif" font-size="14.00" fill="#000000"> &#160;Exports</text>
<g id="clust1" class="cluster">
<title>cluster_FournisseursModule</title>
<polygon fill="none" stroke="#000000" stroke-dasharray="1,5" points="8,-70 8,-268 551,-268 551,-70 8,-70"/>
</g>
<g id="clust2" class="cluster">
<title>cluster_FournisseursModule_declarations</title>
<polygon fill="none" stroke="#000000" points="138,-78 138,-130 543,-130 543,-78 138,-78"/>
</g>
<g id="clust5" class="cluster">
<title>cluster_FournisseursModule_imports</title>
<polygon fill="none" stroke="#000000" points="16,-78 16,-130 130,-130 130,-78 16,-78"/>
</g>
<g id="clust6" class="cluster">
<title>cluster_FournisseursModule_exports</title>
<polygon fill="none" stroke="#000000" points="136,-208 136,-260 336,-260 336,-208 136,-208"/>
</g>
<!-- DialogFournisseursComponent -->
<g id="node1" class="node">
<title>DialogFournisseursComponent</title>
<polygon fill="#ffffb3" stroke="#000000" points="535.4776,-122 344.5224,-122 344.5224,-86 535.4776,-86 535.4776,-122"/>
<text text-anchor="middle" x="440" y="-99.8" font-family="Times,serif" font-size="14.00" fill="#000000">DialogFournisseursComponent</text>
</g>
<!-- FournisseursModule -->
<g id="node3" class="node">
<title>FournisseursModule</title>
<polygon fill="#8dd3c7" stroke="#000000" points="301.5926,-187 298.5926,-191 277.5926,-191 274.5926,-187 170.4074,-187 170.4074,-151 301.5926,-151 301.5926,-187"/>
<text text-anchor="middle" x="236" y="-164.8" font-family="Times,serif" font-size="14.00" fill="#000000">FournisseursModule</text>
</g>
<!-- DialogFournisseursComponent&#45;&gt;FournisseursModule -->
<g id="edge1" class="edge">
<title>DialogFournisseursComponent&#45;&gt;FournisseursModule</title>
<path fill="none" stroke="#000000" d="M440,-122.1061C440,-141.3391 440,-169 440,-169 440,-169 311.6698,-169 311.6698,-169"/>
<polygon fill="#000000" stroke="#000000" points="311.6698,-165.5001 301.6698,-169 311.6698,-172.5001 311.6698,-165.5001"/>
</g>
<!-- FournisseursListeComponent -->
<g id="node2" class="node">
<title>FournisseursListeComponent</title>
<polygon fill="#ffffb3" stroke="#000000" points="326.3682,-122 145.6318,-122 145.6318,-86 326.3682,-86 326.3682,-122"/>
<text text-anchor="middle" x="236" y="-99.8" font-family="Times,serif" font-size="14.00" fill="#000000">FournisseursListeComponent</text>
</g>
<!-- FournisseursListeComponent&#45;&gt;FournisseursModule -->
<g id="edge2" class="edge">
<title>FournisseursListeComponent&#45;&gt;FournisseursModule</title>
<path fill="none" stroke="#000000" d="M236,-122.1061C236,-122.1061 236,-140.991 236,-140.991"/>
<polygon fill="#000000" stroke="#000000" points="232.5001,-140.9909 236,-150.991 239.5001,-140.991 232.5001,-140.9909"/>
</g>
<!-- FournisseursListeComponent  -->
<g id="node5" class="node">
<title>FournisseursListeComponent </title>
<polygon fill="#fb8072" stroke="#000000" points="328.3686,-252 143.6314,-252 143.6314,-216 328.3686,-216 328.3686,-252"/>
<text text-anchor="middle" x="236" y="-229.8" font-family="Times,serif" font-size="14.00" fill="#000000">FournisseursListeComponent </text>
</g>
<!-- FournisseursModule&#45;&gt;FournisseursListeComponent  -->
<g id="edge4" class="edge">
<title>FournisseursModule&#45;&gt;FournisseursListeComponent </title>
<path fill="none" stroke="#000000" stroke-dasharray="5,2" d="M236,-187.1061C236,-187.1061 236,-205.991 236,-205.991"/>
<polygon fill="#000000" stroke="#000000" points="232.5001,-205.9909 236,-215.991 239.5001,-205.991 232.5001,-205.9909"/>
</g>
<!-- SharedModule -->
<g id="node4" class="node">
<title>SharedModule</title>
<polygon fill="#8dd3c7" stroke="#000000" points="122.4231,-122 119.4231,-126 98.4231,-126 95.4231,-122 23.5769,-122 23.5769,-86 122.4231,-86 122.4231,-122"/>
<text text-anchor="middle" x="73" y="-99.8" font-family="Times,serif" font-size="14.00" fill="#000000">SharedModule</text>
</g>
<!-- SharedModule&#45;&gt;FournisseursModule -->
<g id="edge3" class="edge">
<title>SharedModule&#45;&gt;FournisseursModule</title>
<path fill="none" stroke="#000000" d="M73,-122.1061C73,-141.3391 73,-169 73,-169 73,-169 160.1715,-169 160.1715,-169"/>
<polygon fill="#000000" stroke="#000000" points="160.1715,-172.5001 170.1715,-169 160.1715,-165.5001 160.1715,-172.5001"/>
</g>
</g>
</svg>
